<?xml version="1.0" encoding="utf-8"?>
<!-- Generator: Adobe Illustrator 25.2.3, SVG Export Plug-In . SVG Version: 6.00 Build 0)  -->
<svg version="1.1" id="Layer_1" xmlns="http://www.w3.org/2000/svg" xmlns:xlink="http://www.w3.org/1999/xlink" x="0px" y="0px"
	 viewBox="0 0 300 159" style="enable-background:new 0 0 300 159;" xml:space="preserve">
<style type="text/css">
	.st0{fill:#4C4C4C;}
</style>
<path class="st0" d="M118.1,74.3c-1.4-0.9-2.9-1.7-4.4-2.3c-1.5-0.6-3.1-0.9-4.8-1c-1.6-0.1-3.2,0.1-4.7,0.6
	c-1.5,0.5-2.9,1.3-4.1,2.2l0.1-0.1c-1.1,1.1-2.1,2.4-2.7,3.8c-0.6,1.4-0.9,2.9-0.9,4.4c0,0.3,0,0.7,0.1,1c0.1,0.4,0.1,0.7,0.3,1.1
	c0.2,0.7,0.5,1.4,0.9,2c0.4,0.6,0.8,1.2,1.3,1.8c0.5,0.5,1,1,1.6,1.4c0.6,0.4,1.2,0.7,1.9,1c0.6,0.2,1.3,0.4,2,0.5
	c0.7,0.1,1.3,0.1,2,0c0.2,0,0.3,0,0.4-0.1l0.5-0.1c0.3-0.1,0.6-0.2,0.9-0.3c0.3-0.1,0.6-0.3,0.8-0.4l0.2-0.1l0.1-0.1l0.1-0.1
	l0.5-0.4c0.6-0.4,1.1-0.9,1.6-1.4c1-1.1,1.9-2.3,2.5-3.7l1.7-3.5l2.6,3c2.1,2.5,4.5,4.6,7.2,6.4c1.3,0.9,2.7,1.7,4.2,2.3
	c2.9,1.4,6,2.3,9.2,2.8c1.6,0.3,3.2,0.4,4.8,0.4c4.8,0,9.5-1,13.8-3.1c1.4-0.7,2.7-1.5,4-2.4c2.6-1.8,4.8-4,6.6-6.6
	c1.8-2.6,3.3-5.4,4.3-8.5c0.5-1.5,0.9-3.1,1.2-4.7c0.3-1.6,0.5-3.2,0.6-4.8c0.4-6.4-1.1-12.8-4.3-18.4c-0.8-1.4-1.8-2.7-2.8-3.9
	c-0.6-0.6-1.1-1.2-1.7-1.8s-1.2-1.1-1.8-1.7c-1.2-1.1-2.6-2.1-3.9-2.9c-0.7-0.5-1.4-0.9-2.1-1.3c-0.4-0.2-0.7-0.4-1.1-0.6
	s-0.7-0.4-1.1-0.6c-0.8-0.3-1.5-0.7-2.3-1c-0.4-0.2-0.8-0.3-1.2-0.5l-1.2-0.4c-0.8-0.3-1.6-0.5-2.4-0.8s-1.6-0.4-2.4-0.6
	c-3.3-0.7-6.7-1.1-10.1-1.1c-3.4,0-6.9,0.4-10.2,1.1c-1.7,0.3-3.4,0.8-5,1.3c-0.8,0.3-1.7,0.6-2.5,0.8l-2.4,1
	c6.1-3.7,12.9-5.9,20-6.6c7.2-0.7,14.6,0.3,21.3,3c0.4,0.2,0.8,0.4,1.3,0.5s0.9,0.4,1.3,0.6c0.8,0.4,1.6,0.8,2.4,1.3
	c1.6,0.9,3.2,1.9,4.6,3.1c1.5,1.1,2.9,2.4,4.2,3.7c1.3,1.4,2.5,2.8,3.6,4.4c2.1,3.2,3.7,6.6,4.6,10.3c1.9,7.3,1.7,15.1-0.5,22.3
	c-1.1,3.7-2.8,7.1-5,10.2c-1.1,1.6-2.3,3.1-3.7,4.4c-0.3,0.3-0.7,0.7-1,1s-0.7,0.7-1.1,1l-1.1,0.9l-1.2,0.8
	c-1.6,1.1-3.2,2.1-4.9,2.9c-1.7,0.8-3.5,1.5-5.4,2.1c-7.4,2.1-15.2,2-22.5-0.5c-7.2-2.4-13.5-6.9-18.1-12.9l4.3-0.4
	c-1.9,3.6-5,6.5-8.7,8.1c-0.5,0.2-1,0.3-1.6,0.5c-0.3,0.1-0.5,0.1-0.8,0.1c-0.3,0-0.6,0.1-0.8,0.1c-1.1,0-2.1,0-3.1-0.2
	c-1-0.2-2-0.6-3-1c-0.9-0.5-1.8-1-2.6-1.6c-0.8-0.6-1.5-1.4-2.1-2.2c-0.6-0.8-1.2-1.7-1.6-2.6c-0.4-0.9-0.8-1.9-1-2.8
	c-0.1-0.5-0.2-1-0.2-1.5c0-0.5,0-1,0-1.6c0.1-2,0.7-3.9,1.6-5.6c1-1.7,2.3-3.1,3.8-4.3l0.1-0.1c1.5-1,3.2-1.7,5-2.1
	c1.7-0.4,3.5-0.4,5.3-0.1c1.7,0.3,3.4,0.9,4.9,1.7C115.4,72.2,116.8,73.2,118.1,74.3"/>
<path class="st0" d="M136,43.4c0.9,3.8,1.5,7.7,2,11.6c0.5,3.8,0.9,7.6,1.3,11.3c0.4,3.7,0.8,7.4,1.3,11.2c0.2,1.9,0.5,3.7,0.8,5.6
	s0.6,3.8,1,5.9c-1.5-1.4-2.9-2.9-4-4.7c-1.1-1.7-2-3.6-2.8-5.5c-1.5-3.8-2.4-7.8-2.8-11.8c-0.4-4-0.4-8,0.1-12c0.2-2,0.6-4,1.1-5.9
	c0.2-1,0.5-1.9,0.9-2.9C135.2,45.3,135.6,44.3,136,43.4"/>
<path class="st0" d="M245.5,38.3c4.3,2.6,7.8,6.2,10.3,10.5c2.5,4.5,3.9,9.4,4.3,14.5c0.1,1.3,0.1,2.6,0.1,3.8c0,0.6,0,1.3-0.1,1.9
	s-0.1,1.3-0.2,1.9c-0.3,2.6-0.9,5.1-1.7,7.6c-0.8,2.5-1.9,4.9-3.3,7.1c-4.2,6.8-10.7,11.9-18.3,14.3c-5,1.6-10.2,2-15.4,1.3
	c-5.1-0.7-9.9-2.5-14.2-5.2c-4.2-2.7-7.7-6.3-10.2-10.5c3.4,3.2,7.4,5.9,11.7,7.8c4.2,1.8,8.6,2.8,13.2,3c1.1,0,2.2,0,3.3,0h0.8
	l0.8-0.1c0.6,0,1.1-0.1,1.6-0.2c2.2-0.3,4.3-0.9,6.4-1.7c2-0.8,4-1.7,5.8-2.9c1.8-1.1,3.5-2.5,5-4c1.5-1.5,2.9-3.2,4.1-5
	c1.2-1.8,2.2-3.8,3-5.8c1.6-4.2,2.5-8.6,2.5-13c0.2-4.6-0.5-9.2-2.1-13.5c-0.8-2.2-1.9-4.3-3.1-6.2C248.6,42,247.1,40.1,245.5,38.3"
	/>
<path class="st0" d="M189.1,98.8c-0.7-0.6-1.3-1.4-1.8-2.1c-0.5-0.7-0.9-1.4-1.2-2.2c-1.3-2.9-1.7-6.1-1.1-9.3c0.3-1.8,1-3.4,2-4.9
	c1.3,1.2,2.3,2.7,3,4.3c0.6,1.5,1,3,1.2,4.6c0.2,1.6,0.1,3.2-0.1,4.7c-0.2,0.8-0.4,1.6-0.7,2.4C190.1,97.2,189.7,98,189.1,98.8"/>
<path class="st0" d="M189,74c0,1.6-1.3,2.9-2.9,2.9s-2.9-1.3-2.9-2.9s1.3-2.9,2.9-2.9c0,0,0,0,0,0C187.7,71.1,189,72.4,189,74"/>
<path class="st0" d="M215.2,34c4.6-0.8,9.3-1.4,13.9-1.7c4.6-0.3,9.3-0.5,14-0.5s9.3,0.2,13.9,0.5c4.7,0.3,9.3,0.8,13.9,1.7
	c-4.6,0.8-9.3,1.4-14,1.7c-4.6,0.3-9.3,0.5-13.9,0.5s-9.3-0.2-14-0.5C224.4,35.4,219.8,34.8,215.2,34"/>
<path class="st0" d="M29.8,86.3c2.4,2.5,5.2,4.6,8.2,6.4c2.9,1.7,6.1,3,9.3,3.8c3.2,0.8,6.5,1.2,9.9,1.1c3.3-0.1,6.5-0.7,9.6-1.7
	c3-1,5.9-2.5,8.5-4.5c1.3-1,2.5-2,3.6-3.2c1.1-1.1,2.1-2.4,3-3.7c3.6-5.3,5.5-11.6,5.7-18c0.1-3.2-0.2-6.4-1-9.6
	c-0.7-3.1-1.9-6-3.6-8.7c-0.8-1.3-1.8-2.6-2.8-3.8c-0.5-0.6-1.1-1.2-1.6-1.8s-1.2-1.1-1.8-1.6c-1.2-1.1-2.5-2-3.9-2.9
	c-0.7-0.5-1.4-0.9-2.1-1.3c-0.3-0.2-0.7-0.4-1.1-0.6s-0.7-0.4-1.1-0.6c-6-2.9-12.7-4.4-19.3-4.4c-3.4,0-6.8,0.3-10.2,1
	c-1.7,0.3-3.4,0.7-5,1.2c-0.8,0.2-1.7,0.5-2.5,0.8L29,35.2c0.8-0.5,1.5-0.9,2.3-1.3s1.6-0.8,2.4-1.2c1.6-0.8,3.2-1.4,4.9-2
	c3.4-1.2,6.9-2,10.4-2.4c7.3-0.8,14.7,0.3,21.5,3c3.5,1.4,6.7,3.3,9.7,5.6c1.5,1.2,2.9,2.4,4.2,3.8c1.3,1.4,2.5,2.9,3.6,4.4l0.4,0.6
	l0.4,0.6c0.2,0.4,0.5,0.8,0.7,1.2c0.4,0.9,0.9,1.7,1.3,2.6c0.8,1.8,1.4,3.6,1.9,5.4c1.4,5.5,1.6,11.3,0.6,16.9
	c-0.3,1.9-0.8,3.7-1.3,5.5c-1.2,3.6-2.9,7.1-5.2,10.2c-2.3,3.1-5,5.8-8.2,8c-1.6,1.1-3.3,2-5,2.8c-1.7,0.8-3.5,1.4-5.3,1.9
	c-1.8,0.5-3.7,0.8-5.5,1c-1.9,0.2-3.7,0.2-5.6,0.1c-3.7-0.2-7.3-1-10.8-2.3c-3.4-1.3-6.5-3.1-9.3-5.4C34.2,91.9,31.8,89.2,29.8,86.3
	"/>
<path class="st0" d="M49.3,44.4c0.9,3.8,1.5,7.7,2,11.6c0.5,3.8,0.9,7.6,1.3,11.3s0.8,7.4,1.3,11.2c0.2,1.9,0.5,3.7,0.8,5.6
	s0.7,3.8,1,5.8c-1.5-1.4-2.9-2.9-4-4.7c-1.1-1.7-2-3.6-2.7-5.5C47.5,76,46.6,72,46.2,68c-0.4-4-0.4-8,0.1-12c0.2-2,0.6-4,1.1-5.9
	c0.2-1,0.5-1.9,0.8-2.9C48.5,46.2,48.9,45.3,49.3,44.4"/>
<path class="st0" d="M268.4,41.1c-1.5,0-2.6-1.2-2.6-2.6c0-1.5,1.2-2.6,2.6-2.6c0,0,0,0,0,0l0,0c1.5,0,2.6,1.2,2.6,2.6
	S269.8,41.1,268.4,41.1C268.4,41.1,268.4,41.1,268.4,41.1z M266.2,38.5c0,1.2,1,2.2,2.2,2.2s2.2-1,2.2-2.2c0-1.2-1-2.2-2.2-2.2
	C267.2,36.3,266.2,37.3,266.2,38.5L266.2,38.5z M269.5,39.8C269.6,39.9,269.6,39.9,269.5,39.8C269.5,39.9,269.5,39.9,269.5,39.8
	l-0.5,0.1c0,0-0.1,0-0.1,0l-0.6-1.1h-0.5v1c0,0,0,0.1-0.1,0.1c0,0,0,0,0,0h-0.4c0,0-0.1,0-0.1-0.1c0,0,0,0,0,0v-2.8
	c0,0,0-0.1,0.1-0.1c0,0,0,0,0,0h0.9c0.2,0,0.4,0,0.6,0.1c0.5,0.2,0.7,0.8,0.4,1.3c-0.1,0.2-0.2,0.3-0.4,0.4l0,0L269.5,39.8z
	 M268.6,37.5c-0.1,0-0.2,0-0.3,0h-0.4v0.8h0.5c0.2,0,0.4-0.2,0.4-0.4C268.8,37.8,268.7,37.7,268.6,37.5L268.6,37.5z"/>
<g>
	<path class="st0" d="M84.4,125.5c0-0.1,0.1-0.2,0.3-0.1c0.2,0.1,0.3,0.3,0.2,0.4c-0.5,0.9-5,4.5-6.3,5.2c-0.8,0.4-2.1,0.8-2.7-0.1
		c-1.3-1.8,7.2-13.9,7.4-13.9c0.7-1,1.6-1.7,2.3-1.9c0.2-0.1,0.5-0.1,0.7,0c0.4,0.1,0.6,0.4,0.7,0.7c0.1,0.3,0,0.9-0.4,1.6
		c-1.4,2.8-7.3,7.3-7.3,7.3c0,0,0,0-0.1,0c-1.6,2.8-2.7,5.3-2.4,6c0.2,0.3,1.1-0.1,1.4-0.2C79.5,129.8,83.8,126.4,84.4,125.5z
		 M84,117.4c0,0-1.8,2.6-3.6,5.5c1.8-1.5,4.7-4.1,5.7-6c0.3-0.7,0.4-1.1,0.4-1.4c-0.1,0-0.2,0-0.3,0C85.6,115.7,84.7,116.4,84,117.4
		z"/>
	<path class="st0" d="M85.1,124.3c0.1-0.1,0.3,0,0.5,0.2c0.2,0.2,0.2,0.4,0.1,0.5c-0.1,0-0.1,0.1-0.2,0.1c-0.5,0.4-0.8,1.1-1.1,1.8
		c-0.2,0.6-0.3,1.1-0.2,1.3c0.1,0,0.2,0,0.4,0c0.2-0.1,0.4-0.2,0.7-0.4c0.3-0.3,0.6-0.7,0.9-1.2c0.2-0.3,0.3-0.6,0.4-0.9
		c-0.4-0.3-0.7-0.7-0.9-1.1c-0.2-0.4-0.2-0.8-0.2-1.1c0-0.3,0.2-0.5,0.4-0.6c0.2,0,0.4,0,0.5,0.1c0.3,0.2,0.5,0.4,0.7,0.7
		c0.1,0.2,0.2,0.5,0.2,0.8c0,0.3,0,0.6,0,0.9c0.5,0.1,1.2,0.2,2-0.3c0.1-0.1,0.2-0.2,0.4,0c0.2,0.2,0.1,0.4,0,0.4
		c-1,0.6-1.8,0.7-2.5,0.4c-0.1,0.4-0.2,0.8-0.4,1.1c-0.3,0.5-0.6,0.9-0.9,1.2c-0.3,0.2-0.5,0.4-0.7,0.5c-0.3,0.1-0.6,0.1-0.9-0.1
		c-0.2-0.1-0.3-0.2-0.4-0.4c0,0-0.1-0.1-0.1-0.1c-0.4-0.5-0.3-1.3-0.1-2.1c0.2-0.7,0.7-1.4,1.1-1.9C84.9,124.4,85,124.4,85.1,124.3z
		 M86.7,125.3c0-0.4,0-0.7,0-1c0-0.2-0.1-0.4-0.1-0.5c0,0,0,0,0,0c0,0-0.1,0-0.2,0c-0.1,0-0.2,0.1-0.2,0.3c0,0.2,0,0.4,0.1,0.7
		C86.4,125,86.5,125.1,86.7,125.3z"/>
	<path class="st0" d="M90.1,124.3c0.1-0.1,0.3,0,0.5,0.2c0.2,0.2,0.2,0.4,0.1,0.5c-0.1,0-0.1,0.1-0.2,0.1c-0.5,0.4-0.8,1.1-1.1,1.8
		c-0.2,0.6-0.3,1.1-0.2,1.3c0.1,0,0.2,0,0.4,0c0.2-0.1,0.4-0.2,0.7-0.4c0.3-0.3,0.6-0.7,0.9-1.2c0.2-0.3,0.3-0.6,0.4-0.9
		c-0.4-0.3-0.7-0.7-0.9-1.1c-0.2-0.4-0.2-0.8-0.2-1.1c0-0.3,0.2-0.5,0.4-0.6c0.2,0,0.4,0,0.5,0.1c0.3,0.2,0.5,0.4,0.7,0.7
		c0.1,0.2,0.2,0.5,0.2,0.8c0,0.3,0,0.6,0,0.9c0.5,0.1,1.2,0.2,2-0.3c0.1-0.1,0.2-0.2,0.4,0c0.2,0.2,0.1,0.4,0,0.4
		c-1,0.6-1.8,0.7-2.5,0.4c-0.1,0.4-0.2,0.8-0.4,1.1c-0.3,0.5-0.6,0.9-0.9,1.2c-0.3,0.2-0.5,0.4-0.7,0.5c-0.3,0.1-0.6,0.1-0.9-0.1
		c-0.2-0.1-0.3-0.2-0.4-0.4c0,0-0.1-0.1-0.1-0.1c-0.4-0.5-0.3-1.3-0.1-2.1c0.2-0.7,0.7-1.4,1.1-1.9C90,124.4,90.1,124.4,90.1,124.3z
		 M91.7,125.3c0-0.4,0-0.7,0-1c0-0.2-0.1-0.4-0.1-0.5c0,0,0,0,0,0c0,0-0.1,0-0.2,0c-0.1,0-0.2,0.1-0.2,0.3c0,0.2,0,0.4,0.1,0.7
		C91.5,125,91.6,125.1,91.7,125.3z"/>
	<path class="st0" d="M99.5,116.9c0.1-0.1,0.3,0,0.5,0.1c0.2,0.2,0.3,0.4,0.2,0.5l-4.2,6.5c1-0.8,2-1.6,3.2-2c0.1,0,0.4,0.1,0.5,0.3
		c0.2,0.2,0.2,0.4,0.1,0.5c-1.3,0.5-2.5,1.4-3.6,2.3c-0.1,0.3-0.5,2.4,0.2,2.7c1.2,0.5,4.7-2.5,4.7-2.5c0.1-0.1,0.4-0.4,0.5-0.2
		s0.2,0.3,0.1,0.4c0,0-3.6,3.6-5.2,2.9c-1-0.5-1.3-1.6-1.3-2.5c-1.6,1.7-2.7,3.4-2.7,3.4c-0.1,0.1-0.3,0-0.5-0.2
		c-0.2-0.2-0.3-0.4-0.2-0.5l0-0.1L99.5,116.9z"/>
	<path class="st0" d="M102.7,123.7c0.1-0.1,0.3,0,0.5,0.2c0.2,0.2,0.2,0.4,0.1,0.5c-0.5,0.4-1.3,1.4-1.8,2.3c-0.3,0.6-0.3,1-0.1,1.1
		c0.9,0.1,3.3-2.2,3.3-2.3c0.1-0.1,0.2-0.3,0.4-0.1c0.2,0.2,0.1,0.3,0,0.4c0,0-3.7,4-4.6,2.3c-0.3-0.5-0.2-1.3,0.2-2
		C101.3,125.1,102.2,124.1,102.7,123.7z M104,123c-0.1,0.1-0.3,0-0.5-0.2c-0.2-0.2-0.3-0.4-0.2-0.5l1.2-1.4c0.1-0.1,0.3,0,0.5,0.2
		c0.2,0.2,0.2,0.4,0.2,0.5L104,123z"/>
	<path class="st0" d="M105.5,124.2c0.1-0.1,0.3-0.1,0.5,0.1c0.2,0.2,0.3,0.4,0.2,0.5l-0.5,1c1.2-1,2.5-2,3-1.8h0
		c0.7,0.2,0.8,0.6,0.6,1.2c-0.1,0.2-0.2,0.5-0.4,0.9c-0.3,0.6-0.6,1.2-0.6,1.2c0.7,0.5,3.1-1.6,3.1-1.6c0.1-0.1,0.3-0.4,0.5-0.2
		c0.2,0.2,0.1,0.2,0,0.3c0,0-2.4,2.8-3.5,2.1c-1-0.6-0.5-1.6-0.1-2.5c0.1-0.2,0.2-0.4,0.2-0.5c-1.3,0.7-4.2,3.4-4.3,3.5
		c-0.1,0.1-0.3,0-0.4-0.1c-0.2-0.2-0.3-0.4-0.2-0.5L105.5,124.2z"/>
	<path class="st0" d="M123,129.7c0.2,0,0.4,0.2,0.5,0.4c0.1,0.2,0.1,0.4-0.1,0.4c-4.7-0.4-8.1-0.3-10.6,0c-1.5,2.5-3.1,4.9-3.9,4.9
		c-1,0-1.9-0.6-2.3-1.3c-0.2-0.4-0.3-0.9-0.2-1.4c0.2-0.4,0.5-0.9,1.1-1.3c0.9-0.6,2.4-1.2,4.7-1.6c0.5-0.8,1.3-2.2,1.7-3
		c-0.7,0.7-2.1,1.4-2.6,1.3c-0.8-0.2-0.9-0.5-0.8-1.2c0.3-1.5,2.7-3.5,4.1-1.8c0.5-0.6,0.8-1,0.8-1c0.1-0.1,0.3,0,0.4,0.1
		c0.2,0.2,0.3,0.4,0.2,0.5l-0.2,0.4l0,0c0,0-1.1,2.2-2.5,4.5C115.7,129.4,118.9,129.4,123,129.7z M111.6,130.7
		c-1.6,0.4-2.8,0.8-3.5,1.3c-0.5,0.4-0.9,0.8-1,1.2c-0.1,0.4-0.1,0.6,0,0.9c0.2,0.3,0.7,0.5,1.3,0.5
		C109.1,134.6,110.4,132.8,111.6,130.7z M114.3,125.4c-1-1.3-3.9,2.1-2.8,2.2C112.1,127.6,113.7,126.6,114.3,125.4z"/>
	<path class="st0" d="M135.6,129.7c0.2,0,0.4,0.2,0.5,0.4c0.1,0.2,0.1,0.4-0.1,0.4c-4.7-0.4-8.1-0.3-10.6,0
		c-1.5,2.5-3.1,4.9-3.9,4.9c-1,0-1.9-0.6-2.3-1.3c-0.2-0.4-0.3-0.9-0.2-1.4c0.2-0.4,0.5-0.9,1.1-1.3c0.9-0.6,2.4-1.2,4.7-1.6
		c0.5-0.8,1.3-2.2,1.7-3c-0.7,0.7-2.1,1.4-2.6,1.3c-0.8-0.2-0.9-0.5-0.8-1.2c0.3-1.5,2.7-3.5,4.1-1.8c0.5-0.6,0.8-1,0.8-1
		c0.1-0.1,0.3,0,0.4,0.1c0.2,0.2,0.3,0.4,0.2,0.5l-0.2,0.4l0,0c0,0-1.1,2.2-2.5,4.5C128.4,129.4,131.6,129.4,135.6,129.7z
		 M124.3,130.7c-1.6,0.4-2.8,0.8-3.5,1.3c-0.5,0.4-0.9,0.8-1,1.2c-0.1,0.4-0.1,0.6,0,0.9c0.2,0.3,0.7,0.5,1.3,0.5
		C121.7,134.6,123,132.8,124.3,130.7z M126.9,125.4c-1-1.3-3.9,2.1-2.8,2.2C124.7,127.6,126.4,126.6,126.9,125.4z"/>
	<path class="st0" d="M130.4,124.3c0.1-0.1,0.3,0,0.5,0.2c0.2,0.2,0.2,0.4,0.1,0.5c-0.1,0-0.1,0.1-0.2,0.1c-0.5,0.4-0.8,1.1-1.1,1.8
		c-0.2,0.6-0.3,1.1-0.2,1.3c0.1,0,0.2,0,0.4,0c0.2-0.1,0.4-0.2,0.7-0.4c0.3-0.3,0.6-0.7,0.9-1.2c0.2-0.3,0.3-0.6,0.4-0.9
		c-0.4-0.3-0.7-0.7-0.9-1.1c-0.2-0.4-0.2-0.8-0.2-1.1c0-0.3,0.2-0.5,0.4-0.6c0.2,0,0.4,0,0.5,0.1c0.3,0.2,0.5,0.4,0.7,0.7
		c0.1,0.2,0.2,0.5,0.2,0.8c0,0.3,0,0.6,0,0.9c0.5,0.1,1.2,0.2,2-0.3c0.1-0.1,0.2-0.2,0.4,0c0.2,0.2,0.1,0.4,0,0.4
		c-1,0.6-1.8,0.7-2.5,0.4c-0.1,0.4-0.2,0.8-0.4,1.1c-0.3,0.5-0.6,0.9-0.9,1.2c-0.3,0.2-0.5,0.4-0.7,0.5c-0.3,0.1-0.6,0.1-0.9-0.1
		c-0.2-0.1-0.3-0.2-0.4-0.4c0,0-0.1-0.1-0.1-0.1c-0.4-0.5-0.3-1.3-0.1-2.1c0.2-0.7,0.7-1.4,1.1-1.9
		C130.2,124.4,130.3,124.4,130.4,124.3z M132,125.3c0-0.4,0-0.7,0-1c0-0.2-0.1-0.4-0.1-0.5c0,0,0,0,0,0c0,0-0.1,0-0.2,0
		c-0.1,0-0.2,0.1-0.2,0.3c0,0.2,0,0.4,0.1,0.7C131.7,125,131.8,125.1,132,125.3z"/>
	<path class="st0" d="M135.4,124.3c0.1-0.1,0.3,0,0.5,0.2c0.2,0.2,0.2,0.4,0.1,0.5c-0.1,0-0.1,0.1-0.2,0.1c-0.5,0.4-0.8,1.1-1.1,1.8
		c-0.2,0.6-0.3,1.1-0.2,1.3c0.1,0,0.2,0,0.4,0c0.2-0.1,0.4-0.2,0.7-0.4c0.3-0.3,0.6-0.7,0.9-1.2c0.2-0.3,0.3-0.6,0.4-0.9
		c-0.4-0.3-0.7-0.7-0.9-1.1c-0.2-0.4-0.2-0.8-0.2-1.1c0-0.3,0.2-0.5,0.4-0.6c0.2,0,0.4,0,0.5,0.1c0.3,0.2,0.5,0.4,0.7,0.7
		c0.1,0.2,0.2,0.5,0.2,0.8c0,0.3,0,0.6,0,0.9c0.5,0.1,1.2,0.2,2-0.3c0.1-0.1,0.2-0.2,0.4,0c0.2,0.2,0.1,0.4,0,0.4
		c-1,0.6-1.8,0.7-2.5,0.4c-0.1,0.4-0.2,0.8-0.4,1.1c-0.3,0.5-0.6,0.9-0.9,1.2c-0.3,0.2-0.5,0.4-0.7,0.5c-0.3,0.1-0.6,0.1-0.9-0.1
		c-0.2-0.1-0.3-0.2-0.4-0.4c0,0-0.1-0.1-0.1-0.1c-0.4-0.5-0.3-1.3-0.1-2.1c0.2-0.7,0.7-1.4,1.1-1.9
		C135.3,124.4,135.4,124.4,135.4,124.3z M137.1,125.3c0-0.4,0-0.7,0-1c0-0.2-0.1-0.4-0.1-0.5c0,0,0,0,0,0c0,0-0.1,0-0.2,0
		c-0.1,0-0.2,0.1-0.2,0.3c0,0.2,0,0.4,0.1,0.7C136.8,125,136.9,125.1,137.1,125.3z"/>
	<path class="st0" d="M143,126.3c0,0.1-0.2,0.1-0.3,0l0,0c-0.8,0.7-1.5,1.2-2,1.6c-0.7,0.5-2,0.6-1.9-0.7c0-0.3,0.2-0.7,0.4-1.2
		c0.4-0.7,1.4-1.9,2.3-1.9c0.9,0,1.1,0.4,1.3,0.7c0.8-0.8,1.6-1.7,2.4-2.6c1.8-2.2,3-3.9,3.6-4.9l0.5-0.7c0.1-0.1,0.3-0.1,0.5,0.1
		c0.2,0.2,0.3,0.4,0.2,0.5c0,0-0.2,0.3-0.5,0.8c-2.2,3.4-10.3,16.2-10,17c0.1,0.2,0,0.3-0.2,0.3c-0.2,0-0.4-0.2-0.5-0.5
		c-0.3-0.6,2.7-5.6,5.5-10.3c-0.4,0.4-0.8,0.9-1.3,1.2C143,126.2,143,126.3,143,126.3z M142.3,125.5c0-0.2-0.2-0.3-0.4-0.3
		c-0.8,0-1.7,1-2,1.6c-0.2,0.3-0.3,0.6-0.4,0.8c0.1-0.1,0.3-0.2,0.6-0.3c0.5-0.3,1.3-0.9,2-1.6L142.3,125.5z"/>
	<path class="st0" d="M149.9,127.9c0,0,0.6,0.1,0.5-1.1c0-0.1,0.2-0.2,0.4-0.2c0.3,0,0.5,0.2,0.5,0.3c0.2,1.7-1.4,1.5-1.4,1.5
		c-0.2,0-0.5-0.1-0.5-0.3C149.4,128,149.6,127.9,149.9,127.9z"/>
	<path class="st0" d="M158.5,121.8c-0.1,0-0.1-0.1-0.2-0.2c-0.1-0.2-0.1-0.4,0-0.4c0.2,0,0.8-0.6,1.4-1.3l0.2-0.2
		c0.4-0.6,0.7-1.1,0.9-1.5c0.3-0.4,0.5-0.7,0.6-0.9c0-0.1,0.1-0.1,0.2-0.1h0c0.4,0.1,0.6,0.4,0.5,0.8c-0.1,0.3-0.8,1.4-1.6,2.4
		c-0.4,0.6-0.9,1.4-1.5,2.1c-0.7,0.9-1.7,2.4-2.7,4c0.9,0,2.5,0.1,4-1.1c0.1-0.1,0.2-0.2,0.4,0c0.2,0.2,0.2,0.4,0.1,0.5
		c-2.2,1.6-4.1,1.5-4.9,1.3l-0.2,0.2c0,0.5,0,1.4-0.3,2.8c-0.2,1-0.7,1.8-1.3,2.4c-0.7,0.8-1.6,1.1-2.1,1.1l0,0c0,0-0.1,0-0.1,0l0,0
		c-0.5-0.2-0.5-0.7-0.3-1.3c0.2-0.4,0.5-0.9,0.9-1.6c0.7-1.1,1.6-2.5,2.5-3.8c0-0.2,0-0.2,0-0.2c-0.1-0.2,0-0.3,0.2-0.3h0
		c0,0,0,0,0.1,0C156.6,124.6,157.8,122.9,158.5,121.8L158.5,121.8z M155,128.5c-0.7,1-1.3,1.9-1.7,2.7c-0.3,0.5-0.6,1-0.8,1.4
		c0.4-0.2,0.7-0.4,1.1-0.8c0.5-0.5,1-1.3,1.2-2.2C154.9,129.2,155,128.9,155,128.5z"/>
	<path class="st0" d="M162.8,125.6c-1,0.5-2.2,0.7-2.3,0.7c-1.5,3.2,4.4,0.5,5.1-0.7c0.1-0.1,0.3-0.3,0.5-0.1
		c0.2,0.2,0.2,0.3,0.1,0.4c-0.6,1.1-4,3.4-5.6,2.6c-0.7-0.4-1.2-1.3-1-2.2c0.1-0.5,0.4-1.1,0.9-1.6c0.4-0.5,0.9-0.9,1.4-1.3
		c0.6-0.4,1.2-0.7,1.5-0.7c0.2,0,0.4,0.2,0.5,0.3c0.2,0.2,0.3,0.5,0.3,0.8c0,0.2-0.1,0.4-0.2,0.6
		C163.8,124.9,163.3,125.3,162.8,125.6z M161.2,125.3c0.3-0.1,0.6-0.2,1-0.4c0.5-0.2,0.9-0.7,1.1-1.1c0-0.1,0.1-0.2,0.1-0.2
		c-0.2,0.1-0.5,0.3-0.9,0.5C162.2,124.4,161.6,124.8,161.2,125.3z"/>
	<path class="st0" d="M168.1,125.6c-1,0.5-2.2,0.7-2.3,0.7c-1.5,3.2,4.4,0.5,5.1-0.7c0.1-0.1,0.3-0.3,0.5-0.1
		c0.2,0.2,0.2,0.3,0.1,0.4c-0.6,1.1-4,3.4-5.6,2.6c-0.7-0.4-1.2-1.3-1-2.2c0.1-0.5,0.4-1.1,0.9-1.6c0.4-0.5,0.9-0.9,1.4-1.3
		c0.6-0.4,1.2-0.7,1.5-0.7c0.2,0,0.4,0.2,0.5,0.3c0.2,0.2,0.3,0.5,0.3,0.8c0,0.2-0.1,0.4-0.2,0.6
		C169.1,124.9,168.6,125.3,168.1,125.6z M166.5,125.3c0.3-0.1,0.6-0.2,1-0.4c0.5-0.2,0.9-0.7,1.1-1.1c0-0.1,0.1-0.2,0.1-0.2
		c-0.2,0.1-0.5,0.3-0.9,0.5C167.4,124.4,166.9,124.8,166.5,125.3z"/>
	<path class="st0" d="M177.2,125.5c0-0.1,0.1-0.2,0.3-0.1c0.2,0.1,0.3,0.3,0.2,0.4c-0.5,0.9-5,4.5-6.3,5.2c-0.8,0.4-2.1,0.8-2.7-0.1
		c-1.3-1.8,7.2-13.9,7.4-13.9c0.7-1,1.6-1.7,2.3-1.9c0.2-0.1,0.5-0.1,0.7,0c0.4,0.1,0.6,0.4,0.7,0.7c0.1,0.3,0,0.9-0.4,1.6
		c-1.4,2.8-7.3,7.3-7.3,7.3c0,0,0,0-0.1,0c-1.6,2.8-2.7,5.3-2.4,6c0.2,0.3,1.1-0.1,1.4-0.2C172.3,129.8,176.6,126.4,177.2,125.5z
		 M176.8,117.4c0,0-1.8,2.6-3.6,5.5c1.8-1.5,4.7-4.1,5.7-6c0.3-0.7,0.4-1.1,0.4-1.4c-0.1,0-0.2,0-0.3,0
		C178.4,115.7,177.5,116.4,176.8,117.4z"/>
	<path class="st0" d="M178.5,123.7c0.1-0.1,0.3,0,0.5,0.2c0.2,0.2,0.2,0.4,0.1,0.5c-0.5,0.4-1.3,1.4-1.8,2.3c-0.3,0.6-0.3,1-0.1,1.1
		c0.9,0.1,3.3-2.2,3.3-2.3c0.1-0.1,0.2-0.3,0.4-0.1c0.2,0.2,0.1,0.3,0,0.4c0,0-3.7,4-4.6,2.3c-0.3-0.5-0.2-1.3,0.2-2
		C177.2,125.1,178,124.1,178.5,123.7z M179.9,123c-0.1,0.1-0.3,0-0.5-0.2c-0.2-0.2-0.3-0.4-0.2-0.5l1.2-1.4c0.1-0.1,0.3,0,0.5,0.2
		c0.2,0.2,0.2,0.4,0.2,0.5L179.9,123z"/>
	<path class="st0" d="M181.4,124.2c0.1-0.1,0.3-0.1,0.5,0.1c0.2,0.2,0.3,0.4,0.2,0.5l-0.5,1c1.2-1,2.5-2,3-1.8h0
		c0.7,0.2,0.8,0.6,0.6,1.2c-0.1,0.2-0.2,0.5-0.4,0.9c-0.3,0.6-0.6,1.2-0.6,1.2c0.7,0.5,3.1-1.6,3.1-1.6c0.1-0.1,0.3-0.4,0.5-0.2
		c0.2,0.2,0.1,0.2,0,0.3c0,0-2.4,2.8-3.5,2.1c-1-0.6-0.5-1.6-0.1-2.5c0.1-0.2,0.2-0.4,0.2-0.5c-1.3,0.7-4.2,3.4-4.3,3.5
		c-0.1,0.1-0.3,0-0.4-0.1c-0.2-0.2-0.3-0.4-0.2-0.5L181.4,124.2z"/>
	<path class="st0" d="M198.8,129.7c0.2,0,0.4,0.2,0.5,0.4c0.1,0.2,0.1,0.4-0.1,0.4c-4.7-0.4-8.1-0.3-10.6,0
		c-1.5,2.5-3.1,4.9-3.9,4.9c-1,0-1.9-0.6-2.3-1.3c-0.2-0.4-0.3-0.9-0.2-1.4c0.2-0.4,0.5-0.9,1.1-1.3c0.9-0.6,2.4-1.2,4.7-1.6
		c0.5-0.8,1.3-2.2,1.7-3c-0.7,0.7-2.1,1.4-2.6,1.3c-0.8-0.2-0.9-0.5-0.8-1.2c0.3-1.5,2.7-3.5,4.1-1.8c0.5-0.6,0.8-1,0.8-1
		c0.1-0.1,0.3,0,0.4,0.1c0.2,0.2,0.3,0.4,0.2,0.5l-0.2,0.4l0,0c0,0-1.1,2.2-2.5,4.5C191.6,129.4,194.8,129.4,198.8,129.7z
		 M187.5,130.7c-1.6,0.4-2.8,0.8-3.5,1.3c-0.5,0.4-0.9,0.8-1,1.2c-0.1,0.4-0.1,0.6,0,0.9c0.2,0.3,0.7,0.5,1.3,0.5
		C184.9,134.6,186.2,132.8,187.5,130.7z M190.1,125.4c-1-1.3-3.9,2.1-2.8,2.2C187.9,127.6,189.6,126.6,190.1,125.4z"/>
	<path class="st0" d="M204.8,117.3c0.1-0.1,0.3,0,0.5,0.1c0.2,0.2,0.3,0.4,0.2,0.5l-4.9,7.9c0.9-0.8,1.8-1.6,2.5-1.9
		c0.4-0.2,0.7-0.2,1,0l0,0c0.3,0.3,0.5,0.6,0.5,1c0,0.3,0,0.6-0.1,0.9c-0.4,1.1-1.3,2.6-2.2,2.8c-1.3,0.3-1.9-0.4-2.1-1.1
		c-1.1,1.1-1.8,2-1.9,2c-0.1,0.1-0.3,0-0.4-0.2c-0.2-0.2-0.3-0.4-0.2-0.5L204.8,117.3z M203.6,124.7c-0.8,0.4-1.9,1.3-3,2.3
		c0,0.2,0.1,1.2,1,1c0.9-0.2,1.7-1.6,2-2.6c0.1-0.3,0.1-0.5,0.2-0.7C203.8,124.7,203.7,124.7,203.6,124.7z M204,124.6
		C204,124.6,203.9,124.6,204,124.6C204,124.6,204,124.6,204,124.6L204,124.6z"/>
	<path class="st0" d="M208,125.6c-1,0.5-2.2,0.7-2.3,0.7c-1.5,3.2,4.4,0.5,5.1-0.7c0.1-0.1,0.3-0.3,0.5-0.1c0.2,0.2,0.2,0.3,0.1,0.4
		c-0.6,1.1-4,3.4-5.6,2.6c-0.7-0.4-1.2-1.3-1-2.2c0.1-0.5,0.4-1.1,0.9-1.6c0.4-0.5,0.9-0.9,1.4-1.3c0.6-0.4,1.2-0.7,1.5-0.7
		c0.2,0,0.4,0.2,0.5,0.3c0.2,0.2,0.3,0.5,0.3,0.8c0,0.2-0.1,0.4-0.2,0.6C209,124.9,208.5,125.3,208,125.6z M206.4,125.3
		c0.3-0.1,0.6-0.2,1-0.4c0.5-0.2,0.9-0.7,1.1-1.1c0-0.1,0.1-0.2,0.1-0.2c-0.2,0.1-0.5,0.3-0.9,0.5
		C207.3,124.4,206.8,124.8,206.4,125.3z"/>
	<path class="st0" d="M211,126.1c-0.1,0.1-0.4,0.2-0.5,0c-0.2-0.2,0.3-0.6,0.4-0.7l1.6-2c0.3-0.3,0.5-0.5,0.5-0.5
		c0.1-0.1,0.3,0,0.5,0.2c0.2,0.2,0.3,0.4,0.2,0.5l-0.5,0.5c-0.5,0.5-1.1,1.5-0.8,2.5c0.1,0.6,0.1,1.1-0.1,1.5
		c-0.1,0.2-0.3,0.4-0.4,0.5c-0.2,0.1-0.3,0.2-0.5,0.2c-0.3,0.1-0.6,0-0.9-0.1c-1.3-0.6-0.6-1.9-0.6-1.9c0.1-0.1,0.3-0.1,0.5,0.1
		c0.2,0.2,0.3,0.4,0.2,0.5c0,0-0.3,0.6-0.3,0.6c0.1,0,0.3,0,0.4,0c0.2,0,0.3-0.1,0.4-0.2c0.1-0.1,0.3-0.2,0.3-0.4
		c0.2-0.3,0.2-0.7,0.1-1.2c0-0.3-0.2-0.3,0.3-1.3L211,126.1z"/>
	<path class="st0" d="M220.6,115.5c0.1-0.1,0.3,0,0.5,0.2c0.2,0.2,0.3,0.4,0.2,0.5c0,0-1.6,2.2-3.3,4.8h5.6c0.2,0,0.4,0.2,0.5,0.4
		c0.1,0.2,0.1,0.4,0,0.4h-6.6c-0.5,0.7-0.9,1.4-1.4,2.1v0c0,0.1,0,0.1-0.1,0.1c-1.3,2.2-2.1,3.4-1.8,3.9c0.4,0.7,4.9-2.8,4.9-2.8
		c0.1-0.1,0.2-0.1,0.4,0.1s0,0.3,0,0.4c0,0-5,4.9-6.1,3c-0.3-0.6,0.7-2.7,2.1-5.1c0,0,0.1-0.2,0.1-0.2c0-1.7-5.6-1.4-5.6-1.4
		c-0.2,0-0.4-0.2-0.5-0.4c-0.1-0.2-0.1-0.4,0-0.4h7.4C218.7,118.1,220.6,115.6,220.6,115.5z M215.7,122.8c0.2-0.4,0.4-0.7,0.7-1.1
		l-2.7-0.1C214.3,121.9,215.4,122.4,215.7,122.8z"/>
</g>
<g>
	<path class="st0" d="M84.4,125.5c0-0.1,0.1-0.2,0.3-0.1c0.2,0.1,0.3,0.3,0.2,0.4c-0.5,0.9-5,4.5-6.3,5.2c-0.8,0.4-2.1,0.8-2.7-0.1
		c-1.3-1.8,7.2-13.9,7.4-13.9c0.7-1,1.6-1.7,2.3-1.9c0.2-0.1,0.5-0.1,0.7,0c0.4,0.1,0.6,0.4,0.7,0.7c0.1,0.3,0,0.9-0.4,1.6
		c-1.4,2.8-7.3,7.3-7.3,7.3c0,0,0,0-0.1,0c-1.6,2.8-2.7,5.3-2.4,6c0.2,0.3,1.1-0.1,1.4-0.2C79.5,129.8,83.8,126.4,84.4,125.5z
		 M84,117.4c0,0-1.8,2.6-3.6,5.5c1.8-1.5,4.7-4.1,5.7-6c0.3-0.7,0.4-1.1,0.4-1.4c-0.1,0-0.2,0-0.3,0C85.6,115.7,84.7,116.4,84,117.4
		z"/>
	<path class="st0" d="M85.1,124.3c0.1-0.1,0.3,0,0.5,0.2c0.2,0.2,0.2,0.4,0.1,0.5c-0.1,0-0.1,0.1-0.2,0.1c-0.5,0.4-0.8,1.1-1.1,1.8
		c-0.2,0.6-0.3,1.1-0.2,1.3c0.1,0,0.2,0,0.4,0c0.2-0.1,0.4-0.2,0.7-0.4c0.3-0.3,0.6-0.7,0.9-1.2c0.2-0.3,0.3-0.6,0.4-0.9
		c-0.4-0.3-0.7-0.7-0.9-1.1c-0.2-0.4-0.2-0.8-0.2-1.1c0-0.3,0.2-0.5,0.4-0.6c0.2,0,0.4,0,0.5,0.1c0.3,0.2,0.5,0.4,0.7,0.7
		c0.1,0.2,0.2,0.5,0.2,0.8c0,0.3,0,0.6,0,0.9c0.5,0.1,1.2,0.2,2-0.3c0.1-0.1,0.2-0.2,0.4,0c0.2,0.2,0.1,0.4,0,0.4
		c-1,0.6-1.8,0.7-2.5,0.4c-0.1,0.4-0.2,0.8-0.4,1.1c-0.3,0.5-0.6,0.9-0.9,1.2c-0.3,0.2-0.5,0.4-0.7,0.5c-0.3,0.1-0.6,0.1-0.9-0.1
		c-0.2-0.1-0.3-0.2-0.4-0.4c0,0-0.1-0.1-0.1-0.1c-0.4-0.5-0.3-1.3-0.1-2.1c0.2-0.7,0.7-1.4,1.1-1.9C84.9,124.4,85,124.4,85.1,124.3z
		 M86.7,125.3c0-0.4,0-0.7,0-1c0-0.2-0.1-0.4-0.1-0.5c0,0,0,0,0,0c0,0-0.1,0-0.2,0c-0.1,0-0.2,0.1-0.2,0.3c0,0.2,0,0.4,0.1,0.7
		C86.4,125,86.5,125.1,86.7,125.3z"/>
	<path class="st0" d="M90.1,124.3c0.1-0.1,0.3,0,0.5,0.2c0.2,0.2,0.2,0.4,0.1,0.5c-0.1,0-0.1,0.1-0.2,0.1c-0.5,0.4-0.8,1.1-1.1,1.8
		c-0.2,0.6-0.3,1.1-0.2,1.3c0.1,0,0.2,0,0.4,0c0.2-0.1,0.4-0.2,0.7-0.4c0.3-0.3,0.6-0.7,0.9-1.2c0.2-0.3,0.3-0.6,0.4-0.9
		c-0.4-0.3-0.7-0.7-0.9-1.1c-0.2-0.4-0.2-0.8-0.2-1.1c0-0.3,0.2-0.5,0.4-0.6c0.2,0,0.4,0,0.5,0.1c0.3,0.2,0.5,0.4,0.7,0.7
		c0.1,0.2,0.2,0.5,0.2,0.8c0,0.3,0,0.6,0,0.9c0.5,0.1,1.2,0.2,2-0.3c0.1-0.1,0.2-0.2,0.4,0c0.2,0.2,0.1,0.4,0,0.4
		c-1,0.6-1.8,0.7-2.5,0.4c-0.1,0.4-0.2,0.8-0.4,1.1c-0.3,0.5-0.6,0.9-0.9,1.2c-0.3,0.2-0.5,0.4-0.7,0.5c-0.3,0.1-0.6,0.1-0.9-0.1
		c-0.2-0.1-0.3-0.2-0.4-0.4c0,0-0.1-0.1-0.1-0.1c-0.4-0.5-0.3-1.3-0.1-2.1c0.2-0.7,0.7-1.4,1.1-1.9C90,124.4,90.1,124.4,90.1,124.3z
		 M91.7,125.3c0-0.4,0-0.7,0-1c0-0.2-0.1-0.4-0.1-0.5c0,0,0,0,0,0c0,0-0.1,0-0.2,0c-0.1,0-0.2,0.1-0.2,0.3c0,0.2,0,0.4,0.1,0.7
		C91.5,125,91.6,125.1,91.7,125.3z"/>
	<path class="st0" d="M99.5,116.9c0.1-0.1,0.3,0,0.5,0.1c0.2,0.2,0.3,0.4,0.2,0.5l-4.2,6.5c1-0.8,2-1.6,3.2-2c0.1,0,0.4,0.1,0.5,0.3
		c0.2,0.2,0.2,0.4,0.1,0.5c-1.3,0.5-2.5,1.4-3.6,2.3c-0.1,0.3-0.5,2.4,0.2,2.7c1.2,0.5,4.7-2.5,4.7-2.5c0.1-0.1,0.4-0.4,0.5-0.2
		s0.2,0.3,0.1,0.4c0,0-3.6,3.6-5.2,2.9c-1-0.5-1.3-1.6-1.3-2.5c-1.6,1.7-2.7,3.4-2.7,3.4c-0.1,0.1-0.3,0-0.5-0.2
		c-0.2-0.2-0.3-0.4-0.2-0.5l0-0.1L99.5,116.9z"/>
	<path class="st0" d="M102.7,123.7c0.1-0.1,0.3,0,0.5,0.2c0.2,0.2,0.2,0.4,0.1,0.5c-0.5,0.4-1.3,1.4-1.8,2.3c-0.3,0.6-0.3,1-0.1,1.1
		c0.9,0.1,3.3-2.2,3.3-2.3c0.1-0.1,0.2-0.3,0.4-0.1c0.2,0.2,0.1,0.3,0,0.4c0,0-3.7,4-4.6,2.3c-0.3-0.5-0.2-1.3,0.2-2
		C101.3,125.1,102.2,124.1,102.7,123.7z M104,123c-0.1,0.1-0.3,0-0.5-0.2c-0.2-0.2-0.3-0.4-0.2-0.5l1.2-1.4c0.1-0.1,0.3,0,0.5,0.2
		c0.2,0.2,0.2,0.4,0.2,0.5L104,123z"/>
	<path class="st0" d="M105.5,124.2c0.1-0.1,0.3-0.1,0.5,0.1c0.2,0.2,0.3,0.4,0.2,0.5l-0.5,1c1.2-1,2.5-2,3-1.8h0
		c0.7,0.2,0.8,0.6,0.6,1.2c-0.1,0.2-0.2,0.5-0.4,0.9c-0.3,0.6-0.6,1.2-0.6,1.2c0.7,0.5,3.1-1.6,3.1-1.6c0.1-0.1,0.3-0.4,0.5-0.2
		c0.2,0.2,0.1,0.2,0,0.3c0,0-2.4,2.8-3.5,2.1c-1-0.6-0.5-1.6-0.1-2.5c0.1-0.2,0.2-0.4,0.2-0.5c-1.3,0.7-4.2,3.4-4.3,3.5
		c-0.1,0.1-0.3,0-0.4-0.1c-0.2-0.2-0.3-0.4-0.2-0.5L105.5,124.2z"/>
	<path class="st0" d="M123,129.7c0.2,0,0.4,0.2,0.5,0.4c0.1,0.2,0.1,0.4-0.1,0.4c-4.7-0.4-8.1-0.3-10.6,0c-1.5,2.5-3.1,4.9-3.9,4.9
		c-1,0-1.9-0.6-2.3-1.3c-0.2-0.4-0.3-0.9-0.2-1.4c0.2-0.4,0.5-0.9,1.1-1.3c0.9-0.6,2.4-1.2,4.7-1.6c0.5-0.8,1.3-2.2,1.7-3
		c-0.7,0.7-2.1,1.4-2.6,1.3c-0.8-0.2-0.9-0.5-0.8-1.2c0.3-1.5,2.7-3.5,4.1-1.8c0.5-0.6,0.8-1,0.8-1c0.1-0.1,0.3,0,0.4,0.1
		c0.2,0.2,0.3,0.4,0.2,0.5l-0.2,0.4l0,0c0,0-1.1,2.2-2.5,4.5C115.7,129.4,118.9,129.4,123,129.7z M111.6,130.7
		c-1.6,0.4-2.8,0.8-3.5,1.3c-0.5,0.4-0.9,0.8-1,1.2c-0.1,0.4-0.1,0.6,0,0.9c0.2,0.3,0.7,0.5,1.3,0.5
		C109.1,134.6,110.4,132.8,111.6,130.7z M114.3,125.4c-1-1.3-3.9,2.1-2.8,2.2C112.1,127.6,113.7,126.6,114.3,125.4z"/>
	<path class="st0" d="M135.6,129.7c0.2,0,0.4,0.2,0.5,0.4c0.1,0.2,0.1,0.4-0.1,0.4c-4.7-0.4-8.1-0.3-10.6,0
		c-1.5,2.5-3.1,4.9-3.9,4.9c-1,0-1.9-0.6-2.3-1.3c-0.2-0.4-0.3-0.9-0.2-1.4c0.2-0.4,0.5-0.9,1.1-1.3c0.9-0.6,2.4-1.2,4.7-1.6
		c0.5-0.8,1.3-2.2,1.7-3c-0.7,0.7-2.1,1.4-2.6,1.3c-0.8-0.2-0.9-0.5-0.8-1.2c0.3-1.5,2.7-3.5,4.1-1.8c0.5-0.6,0.8-1,0.8-1
		c0.1-0.1,0.3,0,0.4,0.1c0.2,0.2,0.3,0.4,0.2,0.5l-0.2,0.4l0,0c0,0-1.1,2.2-2.5,4.5C128.4,129.4,131.6,129.4,135.6,129.7z
		 M124.3,130.7c-1.6,0.4-2.8,0.8-3.5,1.3c-0.5,0.4-0.9,0.8-1,1.2c-0.1,0.4-0.1,0.6,0,0.9c0.2,0.3,0.7,0.5,1.3,0.5
		C121.7,134.6,123,132.8,124.3,130.7z M126.9,125.4c-1-1.3-3.9,2.1-2.8,2.2C124.7,127.6,126.4,126.6,126.9,125.4z"/>
	<path class="st0" d="M130.4,124.3c0.1-0.1,0.3,0,0.5,0.2c0.2,0.2,0.2,0.4,0.1,0.5c-0.1,0-0.1,0.1-0.2,0.1c-0.5,0.4-0.8,1.1-1.1,1.8
		c-0.2,0.6-0.3,1.1-0.2,1.3c0.1,0,0.2,0,0.4,0c0.2-0.1,0.4-0.2,0.7-0.4c0.3-0.3,0.6-0.7,0.9-1.2c0.2-0.3,0.3-0.6,0.4-0.9
		c-0.4-0.3-0.7-0.7-0.9-1.1c-0.2-0.4-0.2-0.8-0.2-1.1c0-0.3,0.2-0.5,0.4-0.6c0.2,0,0.4,0,0.5,0.1c0.3,0.2,0.5,0.4,0.7,0.7
		c0.1,0.2,0.2,0.5,0.2,0.8c0,0.3,0,0.6,0,0.9c0.5,0.1,1.2,0.2,2-0.3c0.1-0.1,0.2-0.2,0.4,0c0.2,0.2,0.1,0.4,0,0.4
		c-1,0.6-1.8,0.7-2.5,0.4c-0.1,0.4-0.2,0.8-0.4,1.1c-0.3,0.5-0.6,0.9-0.9,1.2c-0.3,0.2-0.5,0.4-0.7,0.5c-0.3,0.1-0.6,0.1-0.9-0.1
		c-0.2-0.1-0.3-0.2-0.4-0.4c0,0-0.1-0.1-0.1-0.1c-0.4-0.5-0.3-1.3-0.1-2.1c0.2-0.7,0.7-1.4,1.1-1.9
		C130.2,124.4,130.3,124.4,130.4,124.3z M132,125.3c0-0.4,0-0.7,0-1c0-0.2-0.1-0.4-0.1-0.5c0,0,0,0,0,0c0,0-0.1,0-0.2,0
		c-0.1,0-0.2,0.1-0.2,0.3c0,0.2,0,0.4,0.1,0.7C131.7,125,131.8,125.1,132,125.3z"/>
	<path class="st0" d="M135.4,124.3c0.1-0.1,0.3,0,0.5,0.2c0.2,0.2,0.2,0.4,0.1,0.5c-0.1,0-0.1,0.1-0.2,0.1c-0.5,0.4-0.8,1.1-1.1,1.8
		c-0.2,0.6-0.3,1.1-0.2,1.3c0.1,0,0.2,0,0.4,0c0.2-0.1,0.4-0.2,0.7-0.4c0.3-0.3,0.6-0.7,0.9-1.2c0.2-0.3,0.3-0.6,0.4-0.9
		c-0.4-0.3-0.7-0.7-0.9-1.1c-0.2-0.4-0.2-0.8-0.2-1.1c0-0.3,0.2-0.5,0.4-0.6c0.2,0,0.4,0,0.5,0.1c0.3,0.2,0.5,0.4,0.7,0.7
		c0.1,0.2,0.2,0.5,0.2,0.8c0,0.3,0,0.6,0,0.9c0.5,0.1,1.2,0.2,2-0.3c0.1-0.1,0.2-0.2,0.4,0c0.2,0.2,0.1,0.4,0,0.4
		c-1,0.6-1.8,0.7-2.5,0.4c-0.1,0.4-0.2,0.8-0.4,1.1c-0.3,0.5-0.6,0.9-0.9,1.2c-0.3,0.2-0.5,0.4-0.7,0.5c-0.3,0.1-0.6,0.1-0.9-0.1
		c-0.2-0.1-0.3-0.2-0.4-0.4c0,0-0.1-0.1-0.1-0.1c-0.4-0.5-0.3-1.3-0.1-2.1c0.2-0.7,0.7-1.4,1.1-1.9
		C135.3,124.4,135.4,124.4,135.4,124.3z M137.1,125.3c0-0.4,0-0.7,0-1c0-0.2-0.1-0.4-0.1-0.5c0,0,0,0,0,0c0,0-0.1,0-0.2,0
		c-0.1,0-0.2,0.1-0.2,0.3c0,0.2,0,0.4,0.1,0.7C136.8,125,136.9,125.1,137.1,125.3z"/>
	<path class="st0" d="M143,126.3c0,0.1-0.2,0.1-0.3,0l0,0c-0.8,0.7-1.5,1.2-2,1.6c-0.7,0.5-2,0.6-1.9-0.7c0-0.3,0.2-0.7,0.4-1.2
		c0.4-0.7,1.4-1.9,2.3-1.9c0.9,0,1.1,0.4,1.3,0.7c0.8-0.8,1.6-1.7,2.4-2.6c1.8-2.2,3-3.9,3.6-4.9l0.5-0.7c0.1-0.1,0.3-0.1,0.5,0.1
		c0.2,0.2,0.3,0.4,0.2,0.5c0,0-0.2,0.3-0.5,0.8c-2.2,3.4-10.3,16.2-10,17c0.1,0.2,0,0.3-0.2,0.3c-0.2,0-0.4-0.2-0.5-0.5
		c-0.3-0.6,2.7-5.6,5.5-10.3c-0.4,0.4-0.8,0.9-1.3,1.2C143,126.2,143,126.3,143,126.3z M142.3,125.5c0-0.2-0.2-0.3-0.4-0.3
		c-0.8,0-1.7,1-2,1.6c-0.2,0.3-0.3,0.6-0.4,0.8c0.1-0.1,0.3-0.2,0.6-0.3c0.5-0.3,1.3-0.9,2-1.6L142.3,125.5z"/>
	<path class="st0" d="M149.9,127.9c0,0,0.6,0.1,0.5-1.1c0-0.1,0.2-0.2,0.4-0.2c0.3,0,0.5,0.2,0.5,0.3c0.2,1.7-1.4,1.5-1.4,1.5
		c-0.2,0-0.5-0.1-0.5-0.3C149.4,128,149.6,127.9,149.9,127.9z"/>
	<path class="st0" d="M158.5,121.8c-0.1,0-0.1-0.1-0.2-0.2c-0.1-0.2-0.1-0.4,0-0.4c0.2,0,0.8-0.6,1.4-1.3l0.2-0.2
		c0.4-0.6,0.7-1.1,0.9-1.5c0.3-0.4,0.5-0.7,0.6-0.9c0-0.1,0.1-0.1,0.2-0.1h0c0.4,0.1,0.6,0.4,0.5,0.8c-0.1,0.3-0.8,1.4-1.6,2.4
		c-0.4,0.6-0.9,1.4-1.5,2.1c-0.7,0.9-1.7,2.4-2.7,4c0.9,0,2.5,0.1,4-1.1c0.1-0.1,0.2-0.2,0.4,0c0.2,0.2,0.2,0.4,0.1,0.5
		c-2.2,1.6-4.1,1.5-4.9,1.3l-0.2,0.2c0,0.5,0,1.4-0.3,2.8c-0.2,1-0.7,1.8-1.3,2.4c-0.7,0.8-1.6,1.1-2.1,1.1l0,0c0,0-0.1,0-0.1,0l0,0
		c-0.5-0.2-0.5-0.7-0.3-1.3c0.2-0.4,0.5-0.9,0.9-1.6c0.7-1.1,1.6-2.5,2.5-3.8c0-0.2,0-0.2,0-0.2c-0.1-0.2,0-0.3,0.2-0.3h0
		c0,0,0,0,0.1,0C156.6,124.6,157.8,122.9,158.5,121.8L158.5,121.8z M155,128.5c-0.7,1-1.3,1.9-1.7,2.7c-0.3,0.5-0.6,1-0.8,1.4
		c0.4-0.2,0.7-0.4,1.1-0.8c0.5-0.5,1-1.3,1.2-2.2C154.9,129.2,155,128.9,155,128.5z"/>
	<path class="st0" d="M162.8,125.6c-1,0.5-2.2,0.7-2.3,0.7c-1.5,3.2,4.4,0.5,5.1-0.7c0.1-0.1,0.3-0.3,0.5-0.1
		c0.2,0.2,0.2,0.3,0.1,0.4c-0.6,1.1-4,3.4-5.6,2.6c-0.7-0.4-1.2-1.3-1-2.2c0.1-0.5,0.4-1.1,0.9-1.6c0.4-0.5,0.9-0.9,1.4-1.3
		c0.6-0.4,1.2-0.7,1.5-0.7c0.2,0,0.4,0.2,0.5,0.3c0.2,0.2,0.3,0.5,0.3,0.8c0,0.2-0.1,0.4-0.2,0.6
		C163.8,124.9,163.3,125.3,162.8,125.6z M161.2,125.3c0.3-0.1,0.6-0.2,1-0.4c0.5-0.2,0.9-0.7,1.1-1.1c0-0.1,0.1-0.2,0.1-0.2
		c-0.2,0.1-0.5,0.3-0.9,0.5C162.2,124.4,161.6,124.8,161.2,125.3z"/>
	<path class="st0" d="M168.1,125.6c-1,0.5-2.2,0.7-2.3,0.7c-1.5,3.2,4.4,0.5,5.1-0.7c0.1-0.1,0.3-0.3,0.5-0.1
		c0.2,0.2,0.2,0.3,0.1,0.4c-0.6,1.1-4,3.4-5.6,2.6c-0.7-0.4-1.2-1.3-1-2.2c0.1-0.5,0.4-1.1,0.9-1.6c0.4-0.5,0.9-0.9,1.4-1.3
		c0.6-0.4,1.2-0.7,1.5-0.7c0.2,0,0.4,0.2,0.5,0.3c0.2,0.2,0.3,0.5,0.3,0.8c0,0.2-0.1,0.4-0.2,0.6
		C169.1,124.9,168.6,125.3,168.1,125.6z M166.5,125.3c0.3-0.1,0.6-0.2,1-0.4c0.5-0.2,0.9-0.7,1.1-1.1c0-0.1,0.1-0.2,0.1-0.2
		c-0.2,0.1-0.5,0.3-0.9,0.5C167.4,124.4,166.9,124.8,166.5,125.3z"/>
	<path class="st0" d="M177.2,125.5c0-0.1,0.1-0.2,0.3-0.1c0.2,0.1,0.3,0.3,0.2,0.4c-0.5,0.9-5,4.5-6.3,5.2c-0.8,0.4-2.1,0.8-2.7-0.1
		c-1.3-1.8,7.2-13.9,7.4-13.9c0.7-1,1.6-1.7,2.3-1.9c0.2-0.1,0.5-0.1,0.7,0c0.4,0.1,0.6,0.4,0.7,0.7c0.1,0.3,0,0.9-0.4,1.6
		c-1.4,2.8-7.3,7.3-7.3,7.3c0,0,0,0-0.1,0c-1.6,2.8-2.7,5.3-2.4,6c0.2,0.3,1.1-0.1,1.4-0.2C172.3,129.8,176.6,126.4,177.2,125.5z
		 M176.8,117.4c0,0-1.8,2.6-3.6,5.5c1.8-1.5,4.7-4.1,5.7-6c0.3-0.7,0.4-1.1,0.4-1.4c-0.1,0-0.2,0-0.3,0
		C178.4,115.7,177.5,116.4,176.8,117.4z"/>
	<path class="st0" d="M178.5,123.7c0.1-0.1,0.3,0,0.5,0.2c0.2,0.2,0.2,0.4,0.1,0.5c-0.5,0.4-1.3,1.4-1.8,2.3c-0.3,0.6-0.3,1-0.1,1.1
		c0.9,0.1,3.3-2.2,3.3-2.3c0.1-0.1,0.2-0.3,0.4-0.1c0.2,0.2,0.1,0.3,0,0.4c0,0-3.7,4-4.6,2.3c-0.3-0.5-0.2-1.3,0.2-2
		C177.2,125.1,178,124.1,178.5,123.7z M179.9,123c-0.1,0.1-0.3,0-0.5-0.2c-0.2-0.2-0.3-0.4-0.2-0.5l1.2-1.4c0.1-0.1,0.3,0,0.5,0.2
		c0.2,0.2,0.2,0.4,0.2,0.5L179.9,123z"/>
	<path class="st0" d="M181.4,124.2c0.1-0.1,0.3-0.1,0.5,0.1c0.2,0.2,0.3,0.4,0.2,0.5l-0.5,1c1.2-1,2.5-2,3-1.8h0
		c0.7,0.2,0.8,0.6,0.6,1.2c-0.1,0.2-0.2,0.5-0.4,0.9c-0.3,0.6-0.6,1.2-0.6,1.2c0.7,0.5,3.1-1.6,3.1-1.6c0.1-0.1,0.3-0.4,0.5-0.2
		c0.2,0.2,0.1,0.2,0,0.3c0,0-2.4,2.8-3.5,2.1c-1-0.6-0.5-1.6-0.1-2.5c0.1-0.2,0.2-0.4,0.2-0.5c-1.3,0.7-4.2,3.4-4.3,3.5
		c-0.1,0.1-0.3,0-0.4-0.1c-0.2-0.2-0.3-0.4-0.2-0.5L181.4,124.2z"/>
	<path class="st0" d="M198.8,129.7c0.2,0,0.4,0.2,0.5,0.4c0.1,0.2,0.1,0.4-0.1,0.4c-4.7-0.4-8.1-0.3-10.6,0
		c-1.5,2.5-3.1,4.9-3.9,4.9c-1,0-1.9-0.6-2.3-1.3c-0.2-0.4-0.3-0.9-0.2-1.4c0.2-0.4,0.5-0.9,1.1-1.3c0.9-0.6,2.4-1.2,4.7-1.6
		c0.5-0.8,1.3-2.2,1.7-3c-0.7,0.7-2.1,1.4-2.6,1.3c-0.8-0.2-0.9-0.5-0.8-1.2c0.3-1.5,2.7-3.5,4.1-1.8c0.5-0.6,0.8-1,0.8-1
		c0.1-0.1,0.3,0,0.4,0.1c0.2,0.2,0.3,0.4,0.2,0.5l-0.2,0.4l0,0c0,0-1.1,2.2-2.5,4.5C191.6,129.4,194.8,129.4,198.8,129.7z
		 M187.5,130.7c-1.6,0.4-2.8,0.8-3.5,1.3c-0.5,0.4-0.9,0.8-1,1.2c-0.1,0.4-0.1,0.6,0,0.9c0.2,0.3,0.7,0.5,1.3,0.5
		C184.9,134.6,186.2,132.8,187.5,130.7z M190.1,125.4c-1-1.3-3.9,2.1-2.8,2.2C187.9,127.6,189.6,126.6,190.1,125.4z"/>
	<path class="st0" d="M204.8,117.3c0.1-0.1,0.3,0,0.5,0.1c0.2,0.2,0.3,0.4,0.2,0.5l-4.9,7.9c0.9-0.8,1.8-1.6,2.5-1.9
		c0.4-0.2,0.7-0.2,1,0l0,0c0.3,0.3,0.5,0.6,0.5,1c0,0.3,0,0.6-0.1,0.9c-0.4,1.1-1.3,2.6-2.2,2.8c-1.3,0.3-1.9-0.4-2.1-1.1
		c-1.1,1.1-1.8,2-1.9,2c-0.1,0.1-0.3,0-0.4-0.2c-0.2-0.2-0.3-0.4-0.2-0.5L204.8,117.3z M203.6,124.7c-0.8,0.4-1.9,1.3-3,2.3
		c0,0.2,0.1,1.2,1,1c0.9-0.2,1.7-1.6,2-2.6c0.1-0.3,0.1-0.5,0.2-0.7C203.8,124.7,203.7,124.7,203.6,124.7z M204,124.6
		C204,124.6,203.9,124.6,204,124.6C204,124.6,204,124.6,204,124.6L204,124.6z"/>
	<path class="st0" d="M208,125.6c-1,0.5-2.2,0.7-2.3,0.7c-1.5,3.2,4.4,0.5,5.1-0.7c0.1-0.1,0.3-0.3,0.5-0.1c0.2,0.2,0.2,0.3,0.1,0.4
		c-0.6,1.1-4,3.4-5.6,2.6c-0.7-0.4-1.2-1.3-1-2.2c0.1-0.5,0.4-1.1,0.9-1.6c0.4-0.5,0.9-0.9,1.4-1.3c0.6-0.4,1.2-0.7,1.5-0.7
		c0.2,0,0.4,0.2,0.5,0.3c0.2,0.2,0.3,0.5,0.3,0.8c0,0.2-0.1,0.4-0.2,0.6C209,124.9,208.5,125.3,208,125.6z M206.4,125.3
		c0.3-0.1,0.6-0.2,1-0.4c0.5-0.2,0.9-0.7,1.1-1.1c0-0.1,0.1-0.2,0.1-0.2c-0.2,0.1-0.5,0.3-0.9,0.5
		C207.3,124.4,206.8,124.8,206.4,125.3z"/>
	<path class="st0" d="M211,126.1c-0.1,0.1-0.4,0.2-0.5,0c-0.2-0.2,0.3-0.6,0.4-0.7l1.6-2c0.3-0.3,0.5-0.5,0.5-0.5
		c0.1-0.1,0.3,0,0.5,0.2c0.2,0.2,0.3,0.4,0.2,0.5l-0.5,0.5c-0.5,0.5-1.1,1.5-0.8,2.5c0.1,0.6,0.1,1.1-0.1,1.5
		c-0.1,0.2-0.3,0.4-0.4,0.5c-0.2,0.1-0.3,0.2-0.5,0.2c-0.3,0.1-0.6,0-0.9-0.1c-1.3-0.6-0.6-1.9-0.6-1.9c0.1-0.1,0.3-0.1,0.5,0.1
		c0.2,0.2,0.3,0.4,0.2,0.5c0,0-0.3,0.6-0.3,0.6c0.1,0,0.3,0,0.4,0c0.2,0,0.3-0.1,0.4-0.2c0.1-0.1,0.3-0.2,0.3-0.4
		c0.2-0.3,0.2-0.7,0.1-1.2c0-0.3-0.2-0.3,0.3-1.3L211,126.1z"/>
	<path class="st0" d="M220.6,115.5c0.1-0.1,0.3,0,0.5,0.2c0.2,0.2,0.3,0.4,0.2,0.5c0,0-1.6,2.2-3.3,4.8h5.6c0.2,0,0.4,0.2,0.5,0.4
		c0.1,0.2,0.1,0.4,0,0.4h-6.6c-0.5,0.7-0.9,1.4-1.4,2.1v0c0,0.1,0,0.1-0.1,0.1c-1.3,2.2-2.1,3.4-1.8,3.9c0.4,0.7,4.9-2.8,4.9-2.8
		c0.1-0.1,0.2-0.1,0.4,0.1s0,0.3,0,0.4c0,0-5,4.9-6.1,3c-0.3-0.6,0.7-2.7,2.1-5.1c0,0,0.1-0.2,0.1-0.2c0-1.7-5.6-1.4-5.6-1.4
		c-0.2,0-0.4-0.2-0.5-0.4c-0.1-0.2-0.1-0.4,0-0.4h7.4C218.7,118.1,220.6,115.6,220.6,115.5z M215.7,122.8c0.2-0.4,0.4-0.7,0.7-1.1
		l-2.7-0.1C214.3,121.9,215.4,122.4,215.7,122.8z"/>
</g>
</svg>
