<?xml version="1.0" encoding="utf-8"?>
<!-- Generator: Adobe Illustrator 25.2.3, SVG Export Plug-In . SVG Version: 6.00 Build 0)  -->
<svg version="1.1" id="Layer_1" xmlns="http://www.w3.org/2000/svg" xmlns:xlink="http://www.w3.org/1999/xlink" x="0px" y="0px"
	 viewBox="0 0 300 160" style="enable-background:new 0 0 300 160;" xml:space="preserve">
<style type="text/css">
	.st0{fill:#6881AD;}
	.st1{fill:#EAB308;}
</style>
<g>
	<g>
		<circle class="st0" cx="12.5" cy="9.1" r="4.3"/>
	</g>
	<g>
		<circle class="st0" cx="12.5" cy="32.3" r="4.3"/>
	</g>
	<g>
		<circle class="st0" cx="12.5" cy="55.5" r="4.3"/>
	</g>
	<g>
		<circle class="st0" cx="12.5" cy="78.8" r="4.3"/>
	</g>
	<g>
		<circle class="st0" cx="12.5" cy="102" r="4.3"/>
	</g>
	<g>
		<circle class="st0" cx="12.5" cy="125.2" r="4.3"/>
	</g>
	<g>
		<circle class="st1" cx="12.5" cy="148.5" r="4.3"/>
	</g>
	<g>
		<circle class="st0" cx="35.4" cy="9.1" r="4.3"/>
	</g>
	<g>
		<circle class="st0" cx="35.4" cy="32.3" r="4.3"/>
	</g>
	<g>
		<circle class="st0" cx="35.4" cy="55.5" r="4.3"/>
	</g>
	<g>
		<circle class="st0" cx="35.4" cy="78.8" r="4.3"/>
	</g>
	<g>
		<circle class="st0" cx="35.4" cy="102" r="4.3"/>
	</g>
	<g>
		<circle class="st0" cx="35.4" cy="125.2" r="4.3"/>
	</g>
	<g>
		<circle class="st1" cx="35.4" cy="148.5" r="4.3"/>
	</g>
	<g>
		<circle class="st0" cx="58.3" cy="9.1" r="4.3"/>
	</g>
	<g>
		<circle class="st0" cx="58.3" cy="32.3" r="4.3"/>
	</g>
	<g>
		<circle class="st0" cx="58.3" cy="55.5" r="4.3"/>
	</g>
	<g>
		<circle class="st0" cx="58.3" cy="78.8" r="4.3"/>
	</g>
	<g>
		<circle class="st0" cx="58.3" cy="102" r="4.3"/>
	</g>
	<g>
		<circle class="st0" cx="58.3" cy="125.2" r="4.3"/>
	</g>
	<g>
		<circle class="st1" cx="58.3" cy="148.5" r="4.3"/>
	</g>
	<g>
		<circle class="st0" cx="81.2" cy="9.1" r="4.3"/>
	</g>
	<g>
		<circle class="st0" cx="81.2" cy="32.3" r="4.3"/>
	</g>
	<g>
		<circle class="st0" cx="81.2" cy="55.5" r="4.3"/>
	</g>
	<g>
		<circle class="st0" cx="81.2" cy="78.8" r="4.3"/>
	</g>
	<g>
		<circle class="st0" cx="81.2" cy="102" r="4.3"/>
	</g>
	<g>
		<circle class="st0" cx="81.2" cy="125.2" r="4.3"/>
	</g>
	<g>
		<circle class="st1" cx="81.2" cy="148.5" r="4.3"/>
	</g>
	<g>
		<circle class="st0" cx="104.2" cy="9.1" r="4.3"/>
	</g>
	<g>
		<circle class="st0" cx="104.2" cy="32.3" r="4.3"/>
	</g>
	<g>
		<circle class="st0" cx="104.2" cy="55.5" r="4.3"/>
	</g>
	<g>
		<circle class="st0" cx="104.2" cy="78.8" r="4.3"/>
	</g>
	<g>
		<circle class="st0" cx="104.2" cy="102" r="4.3"/>
	</g>
	<g>
		<circle class="st0" cx="104.2" cy="125.2" r="4.3"/>
	</g>
	<g>
		<circle class="st1" cx="104.2" cy="148.5" r="4.3"/>
	</g>
	<g>
		<circle class="st0" cx="127.1" cy="9.1" r="4.3"/>
	</g>
	<g>
		<circle class="st0" cx="127.1" cy="32.3" r="4.3"/>
	</g>
	<g>
		<circle class="st0" cx="127.1" cy="55.5" r="4.3"/>
	</g>
	<g>
		<circle class="st0" cx="127.1" cy="78.8" r="4.3"/>
	</g>
	<g>
		<circle class="st0" cx="127.1" cy="102" r="4.3"/>
	</g>
	<g>
		<circle class="st0" cx="127.1" cy="125.2" r="4.3"/>
	</g>
	<g>
		<circle class="st1" cx="127.1" cy="148.5" r="4.3"/>
	</g>
	<g>
		<circle class="st0" cx="150" cy="9.1" r="4.3"/>
	</g>
	<g>
		<circle class="st0" cx="150" cy="32.3" r="4.3"/>
	</g>
	<g>
		<circle class="st0" cx="150" cy="55.5" r="4.3"/>
	</g>
	<g>
		<circle class="st0" cx="150" cy="78.8" r="4.3"/>
	</g>
	<g>
		<circle class="st0" cx="150" cy="102" r="4.3"/>
	</g>
	<g>
		<circle class="st0" cx="150" cy="125.2" r="4.3"/>
	</g>
	<g>
		<circle class="st1" cx="150" cy="148.5" r="4.3"/>
	</g>
	<g>
		<circle class="st0" cx="172.9" cy="9.1" r="4.3"/>
	</g>
	<g>
		<circle class="st0" cx="172.9" cy="32.3" r="4.3"/>
	</g>
	<g>
		<circle class="st0" cx="172.9" cy="55.5" r="4.3"/>
	</g>
	<g>
		<circle class="st0" cx="172.9" cy="78.8" r="4.3"/>
	</g>
	<g>
		<circle class="st0" cx="172.9" cy="102" r="4.3"/>
	</g>
	<g>
		<circle class="st0" cx="172.9" cy="125.2" r="4.3"/>
	</g>
	<g>
		<circle class="st1" cx="172.9" cy="148.5" r="4.3"/>
	</g>
	<g>
		<circle class="st0" cx="195.8" cy="9.1" r="4.3"/>
	</g>
	<g>
		<circle class="st0" cx="195.8" cy="32.3" r="4.3"/>
	</g>
	<g>
		<circle class="st0" cx="195.8" cy="55.5" r="4.3"/>
	</g>
	<g>
		<circle class="st0" cx="195.8" cy="78.8" r="4.3"/>
	</g>
	<g>
		<circle class="st0" cx="195.8" cy="102" r="4.3"/>
	</g>
	<g>
		<circle class="st0" cx="195.8" cy="125.2" r="4.3"/>
	</g>
	<g>
		<circle class="st1" cx="195.8" cy="148.5" r="4.3"/>
	</g>
	<g>
		<circle class="st0" cx="218.8" cy="9.1" r="4.3"/>
	</g>
	<g>
		<circle class="st0" cx="218.8" cy="32.3" r="4.3"/>
	</g>
	<g>
		<circle class="st0" cx="218.8" cy="55.5" r="4.3"/>
	</g>
	<g>
		<circle class="st0" cx="218.8" cy="78.8" r="4.3"/>
	</g>
	<g>
		<circle class="st0" cx="218.8" cy="102" r="4.3"/>
	</g>
	<g>
		<circle class="st0" cx="218.8" cy="125.2" r="4.3"/>
	</g>
	<g>
		<circle class="st1" cx="218.8" cy="148.5" r="4.3"/>
	</g>
	<g>
		<circle class="st0" cx="241.7" cy="9.1" r="4.3"/>
	</g>
	<g>
		<circle class="st0" cx="241.7" cy="32.3" r="4.3"/>
	</g>
	<g>
		<circle class="st0" cx="241.7" cy="55.5" r="4.3"/>
	</g>
	<g>
		<circle class="st0" cx="241.7" cy="78.8" r="4.3"/>
	</g>
	<g>
		<circle class="st0" cx="241.7" cy="102" r="4.3"/>
	</g>
	<g>
		<circle class="st0" cx="241.7" cy="125.2" r="4.3"/>
	</g>
	<g>
		<circle class="st1" cx="241.7" cy="148.5" r="4.3"/>
	</g>
	<g>
		<circle class="st0" cx="264.6" cy="9.1" r="4.3"/>
	</g>
	<g>
		<circle class="st0" cx="264.6" cy="32.3" r="4.3"/>
	</g>
	<g>
		<circle class="st0" cx="264.6" cy="55.5" r="4.3"/>
	</g>
	<g>
		<circle class="st0" cx="264.6" cy="78.8" r="4.3"/>
	</g>
	<g>
		<circle class="st0" cx="264.6" cy="102" r="4.3"/>
	</g>
	<g>
		<circle class="st0" cx="264.6" cy="125.2" r="4.3"/>
	</g>
	<g>
		<circle class="st1" cx="264.6" cy="148.5" r="4.3"/>
	</g>
	<g>
		<circle class="st0" cx="287.5" cy="9.1" r="4.3"/>
	</g>
	<g>
		<circle class="st0" cx="287.5" cy="32.3" r="4.3"/>
	</g>
	<g>
		<circle class="st0" cx="287.5" cy="55.5" r="4.3"/>
	</g>
	<g>
		<circle class="st0" cx="287.5" cy="78.8" r="4.3"/>
	</g>
	<g>
		<circle class="st0" cx="287.5" cy="102" r="4.3"/>
	</g>
	<g>
		<circle class="st0" cx="287.5" cy="125.2" r="4.3"/>
	</g>
	<g>
		<circle class="st1" cx="287.5" cy="148.5" r="4.3"/>
	</g>
</g>
</svg>
