<?xml version="1.0" encoding="utf-8"?>
<!-- Generator: Adobe Illustrator 25.2.3, SVG Export Plug-In . SVG Version: 6.00 Build 0)  -->
<svg version="1.1" id="Layer_1" xmlns="http://www.w3.org/2000/svg" xmlns:xlink="http://www.w3.org/1999/xlink" x="0px" y="0px"
	 viewBox="0 0 300 160" style="enable-background:new 0 0 300 160;" xml:space="preserve">
<style type="text/css">
	.st0{fill:#D1DAE8;}
	.st1{fill:#E2D4B0;}
</style>
<g>
	<g>
		<circle class="st0" cx="12.5" cy="10.3" r="4.3"/>
	</g>
	<g>
		<circle class="st0" cx="12.5" cy="33.5" r="4.3"/>
	</g>
	<g>
		<circle class="st0" cx="12.5" cy="56.8" r="4.3"/>
	</g>
	<g>
		<circle class="st0" cx="12.5" cy="80" r="4.3"/>
	</g>
	<g>
		<circle class="st0" cx="12.5" cy="103.2" r="4.3"/>
	</g>
	<g>
		<circle class="st0" cx="12.5" cy="126.5" r="4.3"/>
	</g>
	<g>
		<circle class="st1" cx="12.5" cy="149.7" r="4.3"/>
	</g>
	<g>
		<circle class="st0" cx="35.4" cy="10.3" r="4.3"/>
	</g>
	<g>
		<circle class="st0" cx="35.4" cy="33.5" r="4.3"/>
	</g>
	<g>
		<circle class="st0" cx="35.4" cy="56.8" r="4.3"/>
	</g>
	<g>
		<circle class="st0" cx="35.4" cy="80" r="4.3"/>
	</g>
	<g>
		<circle class="st0" cx="35.4" cy="103.2" r="4.3"/>
	</g>
	<g>
		<circle class="st0" cx="35.4" cy="126.5" r="4.3"/>
	</g>
	<g>
		<circle class="st1" cx="35.4" cy="149.7" r="4.3"/>
	</g>
	<g>
		<circle class="st0" cx="58.3" cy="10.3" r="4.3"/>
	</g>
	<g>
		<circle class="st0" cx="58.3" cy="33.5" r="4.3"/>
	</g>
	<g>
		<circle class="st0" cx="58.3" cy="56.8" r="4.3"/>
	</g>
	<g>
		<circle class="st0" cx="58.3" cy="80" r="4.3"/>
	</g>
	<g>
		<circle class="st0" cx="58.3" cy="103.2" r="4.3"/>
	</g>
	<g>
		<circle class="st0" cx="58.3" cy="126.5" r="4.3"/>
	</g>
	<g>
		<circle class="st1" cx="58.3" cy="149.7" r="4.3"/>
	</g>
	<g>
		<circle class="st0" cx="81.2" cy="10.3" r="4.3"/>
	</g>
	<g>
		<circle class="st0" cx="81.2" cy="33.5" r="4.3"/>
	</g>
	<g>
		<circle class="st0" cx="81.2" cy="56.8" r="4.3"/>
	</g>
	<g>
		<circle class="st0" cx="81.2" cy="80" r="4.3"/>
	</g>
	<g>
		<circle class="st0" cx="81.2" cy="103.2" r="4.3"/>
	</g>
	<g>
		<circle class="st0" cx="81.2" cy="126.5" r="4.3"/>
	</g>
	<g>
		<circle class="st1" cx="81.2" cy="149.7" r="4.3"/>
	</g>
	<g>
		<circle class="st0" cx="104.2" cy="10.3" r="4.3"/>
	</g>
	<g>
		<circle class="st0" cx="104.2" cy="33.5" r="4.3"/>
	</g>
	<g>
		<circle class="st0" cx="104.2" cy="56.8" r="4.3"/>
	</g>
	<g>
		<circle class="st0" cx="104.2" cy="80" r="4.3"/>
	</g>
	<g>
		<circle class="st0" cx="104.2" cy="103.2" r="4.3"/>
	</g>
	<g>
		<circle class="st0" cx="104.2" cy="126.5" r="4.3"/>
	</g>
	<g>
		<circle class="st1" cx="104.2" cy="149.7" r="4.3"/>
	</g>
	<g>
		<circle class="st0" cx="127.1" cy="10.3" r="4.3"/>
	</g>
	<g>
		<circle class="st0" cx="127.1" cy="33.5" r="4.3"/>
	</g>
	<g>
		<circle class="st0" cx="127.1" cy="56.8" r="4.3"/>
	</g>
	<g>
		<circle class="st0" cx="127.1" cy="80" r="4.3"/>
	</g>
	<g>
		<circle class="st0" cx="127.1" cy="103.2" r="4.3"/>
	</g>
	<g>
		<circle class="st0" cx="127.1" cy="126.5" r="4.3"/>
	</g>
	<g>
		<circle class="st1" cx="127.1" cy="149.7" r="4.3"/>
	</g>
	<g>
		<circle class="st0" cx="150" cy="10.3" r="4.3"/>
	</g>
	<g>
		<circle class="st0" cx="150" cy="33.5" r="4.3"/>
	</g>
	<g>
		<circle class="st0" cx="150" cy="56.8" r="4.3"/>
	</g>
	<g>
		<circle class="st0" cx="150" cy="80" r="4.3"/>
	</g>
	<g>
		<circle class="st0" cx="150" cy="103.2" r="4.3"/>
	</g>
	<g>
		<circle class="st0" cx="150" cy="126.5" r="4.3"/>
	</g>
	<g>
		<circle class="st1" cx="150" cy="149.7" r="4.3"/>
	</g>
	<g>
		<circle class="st0" cx="172.9" cy="10.3" r="4.3"/>
	</g>
	<g>
		<circle class="st0" cx="172.9" cy="33.5" r="4.3"/>
	</g>
	<g>
		<circle class="st0" cx="172.9" cy="56.8" r="4.3"/>
	</g>
	<g>
		<circle class="st0" cx="172.9" cy="80" r="4.3"/>
	</g>
	<g>
		<circle class="st0" cx="172.9" cy="103.2" r="4.3"/>
	</g>
	<g>
		<circle class="st0" cx="172.9" cy="126.5" r="4.3"/>
	</g>
	<g>
		<circle class="st1" cx="172.9" cy="149.7" r="4.3"/>
	</g>
	<g>
		<circle class="st0" cx="195.8" cy="10.3" r="4.3"/>
	</g>
	<g>
		<circle class="st0" cx="195.8" cy="33.5" r="4.3"/>
	</g>
	<g>
		<circle class="st0" cx="195.8" cy="56.8" r="4.3"/>
	</g>
	<g>
		<circle class="st0" cx="195.8" cy="80" r="4.3"/>
	</g>
	<g>
		<circle class="st0" cx="195.8" cy="103.2" r="4.3"/>
	</g>
	<g>
		<circle class="st0" cx="195.8" cy="126.5" r="4.3"/>
	</g>
	<g>
		<circle class="st1" cx="195.8" cy="149.7" r="4.3"/>
	</g>
	<g>
		<circle class="st0" cx="218.8" cy="10.3" r="4.3"/>
	</g>
	<g>
		<circle class="st0" cx="218.8" cy="33.5" r="4.3"/>
	</g>
	<g>
		<circle class="st0" cx="218.8" cy="56.8" r="4.3"/>
	</g>
	<g>
		<circle class="st0" cx="218.8" cy="80" r="4.3"/>
	</g>
	<g>
		<circle class="st0" cx="218.8" cy="103.2" r="4.3"/>
	</g>
	<g>
		<circle class="st0" cx="218.8" cy="126.5" r="4.3"/>
	</g>
	<g>
		<circle class="st1" cx="218.8" cy="149.7" r="4.3"/>
	</g>
	<g>
		<circle class="st0" cx="241.7" cy="10.3" r="4.3"/>
	</g>
	<g>
		<circle class="st0" cx="241.7" cy="33.5" r="4.3"/>
	</g>
	<g>
		<circle class="st0" cx="241.7" cy="56.8" r="4.3"/>
	</g>
	<g>
		<circle class="st0" cx="241.7" cy="80" r="4.3"/>
	</g>
	<g>
		<circle class="st0" cx="241.7" cy="103.2" r="4.3"/>
	</g>
	<g>
		<circle class="st0" cx="241.7" cy="126.5" r="4.3"/>
	</g>
	<g>
		<circle class="st1" cx="241.7" cy="149.7" r="4.3"/>
	</g>
	<g>
		<circle class="st0" cx="264.6" cy="10.3" r="4.3"/>
	</g>
	<g>
		<circle class="st0" cx="264.6" cy="33.5" r="4.3"/>
	</g>
	<g>
		<circle class="st0" cx="264.6" cy="56.8" r="4.3"/>
	</g>
	<g>
		<circle class="st0" cx="264.6" cy="80" r="4.3"/>
	</g>
	<g>
		<circle class="st0" cx="264.6" cy="103.2" r="4.3"/>
	</g>
	<g>
		<circle class="st0" cx="264.6" cy="126.5" r="4.3"/>
	</g>
	<g>
		<circle class="st1" cx="264.6" cy="149.7" r="4.3"/>
	</g>
	<g>
		<circle class="st0" cx="287.5" cy="10.3" r="4.3"/>
	</g>
	<g>
		<circle class="st0" cx="287.5" cy="33.5" r="4.3"/>
	</g>
	<g>
		<circle class="st0" cx="287.5" cy="56.8" r="4.3"/>
	</g>
	<g>
		<circle class="st0" cx="287.5" cy="80" r="4.3"/>
	</g>
	<g>
		<circle class="st0" cx="287.5" cy="103.2" r="4.3"/>
	</g>
	<g>
		<circle class="st0" cx="287.5" cy="126.5" r="4.3"/>
	</g>
	<g>
		<circle class="st1" cx="287.5" cy="149.7" r="4.3"/>
	</g>
</g>
</svg>
