<?xml version="1.0" encoding="utf-8"?>
<!-- Generator: Adobe Illustrator 25.2.3, SVG Export Plug-In . SVG Version: 6.00 Build 0)  -->
<svg version="1.1" id="Layer_1" xmlns="http://www.w3.org/2000/svg" xmlns:xlink="http://www.w3.org/1999/xlink" x="0px" y="0px"
	 viewBox="0 0 300 300" style="enable-background:new 0 0 300 300;" xml:space="preserve">
<style type="text/css">
	.st0{fill:#FFFFFF;}
	.st1{fill:#D1BC80;}
</style>
<g>
	<g>
		<circle class="st0" cx="150" cy="23" r="4.3"/>
	</g>
	<g>
		<circle class="st0" cx="127.3" cy="25.1" r="4.3"/>
	</g>
	<g>
		<circle class="st0" cx="105.4" cy="31.1" r="4.3"/>
	</g>
	<g>
		<circle class="st0" cx="84.9" cy="41" r="4.3"/>
	</g>
	<g>
		<circle class="st0" cx="66.5" cy="54.4" r="4.3"/>
	</g>
	<g>
		<circle class="st0" cx="50.7" cy="70.8" r="4.3"/>
	</g>
	<g>
		<circle class="st0" cx="38.2" cy="89.8" r="4.3"/>
	</g>
	<g>
		<circle class="st0" cx="29.2" cy="110.8" r="4.3"/>
	</g>
	<g>
		<circle class="st0" cx="24.2" cy="133" r="4.3"/>
	</g>
	<g>
		<circle class="st0" cx="23.1" cy="155.7" r="4.3"/>
	</g>
	<g>
		<circle class="st0" cx="26.2" cy="178.3" r="4.3"/>
	</g>
	<g>
		<circle class="st0" cx="33.2" cy="199.9" r="4.3"/>
	</g>
	<g>
		<circle class="st0" cx="44" cy="220" r="4.3"/>
	</g>
	<g>
		<circle class="st0" cx="58.2" cy="237.8" r="4.3"/>
	</g>
	<g>
		<circle class="st0" cx="75.4" cy="252.7" r="4.3"/>
	</g>
	<g>
		<circle class="st0" cx="94.9" cy="264.4" r="4.3"/>
	</g>
	<g>
		<circle class="st0" cx="116.2" cy="272.4" r="4.3"/>
	</g>
	<g>
		<circle class="st0" cx="138.6" cy="276.5" r="4.3"/>
	</g>
	<g>
		<circle class="st0" cx="161.4" cy="276.5" r="4.3"/>
	</g>
	<g>
		<circle class="st0" cx="183.8" cy="272.4" r="4.3"/>
	</g>
	<g>
		<circle class="st0" cx="205.1" cy="264.4" r="4.3"/>
	</g>
	<g>
		<circle class="st0" cx="224.6" cy="252.7" r="4.3"/>
	</g>
	<g>
		<circle class="st0" cx="241.8" cy="237.8" r="4.3"/>
	</g>
	<g>
		<ellipse transform="matrix(0.1602 -0.9871 0.9871 0.1602 -2.1659 437.4543)" class="st0" cx="256" cy="220" rx="4.3" ry="4.3"/>
	</g>
	<g>
		<circle class="st0" cx="266.8" cy="199.9" r="4.3"/>
	</g>
	<g>
		<circle class="st0" cx="273.8" cy="178.3" r="4.3"/>
	</g>
	<g>
		<circle class="st0" cx="276.9" cy="155.7" r="4.3"/>
	</g>
	<g>
		<circle class="st0" cx="275.8" cy="133" r="4.3"/>
	</g>
	<g>
		<circle class="st0" cx="270.8" cy="110.8" r="4.3"/>
	</g>
	<g>
		<circle class="st0" cx="261.8" cy="89.8" r="4.3"/>
	</g>
	<g>
		<circle class="st0" cx="249.3" cy="70.8" r="4.3"/>
	</g>
	<g>
		<circle class="st0" cx="233.5" cy="54.4" r="4.3"/>
	</g>
	<g>
		<circle class="st0" cx="215.1" cy="41" r="4.3"/>
	</g>
	<g>
		<circle class="st0" cx="194.6" cy="31.1" r="4.3"/>
	</g>
	<g>
		<circle class="st0" cx="172.7" cy="25.1" r="4.3"/>
	</g>
</g>
<g>
	<circle class="st0" cx="150" cy="49" r="3.4"/>
	<circle class="st0" cx="132" cy="50.6" r="3.4"/>
	<circle class="st0" cx="114.5" cy="55.4" r="3.4"/>
	<circle class="st0" cx="98.2" cy="63.3" r="3.4"/>
	<circle class="st0" cx="83.6" cy="73.9" r="3.4"/>
	<circle class="st0" cx="71.1" cy="87" r="3.4"/>
	<circle class="st0" cx="61.1" cy="102.1" r="3.4"/>
	<circle class="st0" cx="54" cy="118.8" r="3.4"/>
	<circle class="st0" cx="50" cy="136.4" r="3.4"/>
	<circle class="st0" cx="49.2" cy="154.5" r="3.4"/>
	<circle class="st0" cx="51.6" cy="172.4" r="3.4"/>
	<circle class="st0" cx="57.2" cy="189.6" r="3.4"/>
	<circle class="st0" cx="65.8" cy="205.6" r="3.4"/>
	<circle class="st0" cx="77" cy="219.7" r="3.4"/>
	<circle class="st0" cx="90.7" cy="231.6" r="3.4"/>
	<circle class="st0" cx="106.2" cy="240.9" r="3.4"/>
	<circle class="st0" cx="123.1" cy="247.2" r="3.4"/>
	<circle class="st0" cx="141" cy="250.5" r="3.4"/>
	<circle class="st0" cx="159" cy="250.5" r="3.4"/>
	<circle class="st0" cx="176.9" cy="247.2" r="3.4"/>
	<circle class="st0" cx="193.8" cy="240.9" r="3.4"/>
	<circle class="st0" cx="209.3" cy="231.6" r="3.4"/>
	<circle class="st0" cx="223" cy="219.7" r="3.4"/>
	<circle class="st0" cx="234.2" cy="205.6" r="3.4"/>
	<circle class="st0" cx="242.8" cy="189.6" r="3.4"/>
	<circle class="st0" cx="248.4" cy="172.4" r="3.4"/>
	<circle class="st0" cx="250.8" cy="154.5" r="3.4"/>
	<circle class="st0" cx="250" cy="136.4" r="3.4"/>
	<circle class="st0" cx="246" cy="118.8" r="3.4"/>
	<circle class="st0" cx="238.9" cy="102.1" r="3.4"/>
	<circle class="st0" cx="228.9" cy="87" r="3.4"/>
	<circle class="st0" cx="216.4" cy="73.9" r="3.4"/>
	<circle class="st0" cx="201.8" cy="63.3" r="3.4"/>
	<circle class="st0" cx="185.5" cy="55.4" r="3.4"/>
	<circle class="st0" cx="168" cy="50.6" r="3.4"/>
</g>
<g>
	<circle class="st0" cx="150" cy="75" r="2.5"/>
	<circle class="st0" cx="136.6" cy="76.2" r="2.5"/>
	<circle class="st0" cx="123.7" cy="79.8" r="2.5"/>
	<circle class="st0" cx="111.6" cy="85.6" r="2.5"/>
	<circle class="st0" cx="100.7" cy="93.5" r="2.5"/>
	<circle class="st0" cx="91.4" cy="103.2" r="2.5"/>
	<circle class="st0" cx="84.1" cy="114.4" r="2.5"/>
	<circle class="st0" cx="78.8" cy="126.8" r="2.5"/>
	<circle class="st0" cx="75.8" cy="139.8" r="2.5"/>
	<circle class="st0" cx="75.2" cy="153.3" r="2.5"/>
	<circle class="st0" cx="77" cy="166.6" r="2.5"/>
	<circle class="st0" cx="81.1" cy="179.3" r="2.5"/>
	<circle class="st0" cx="87.5" cy="191.2" r="2.5"/>
	<circle class="st0" cx="95.9" cy="201.6" r="2.5"/>
	<circle class="st0" cx="106" cy="210.5" r="2.5"/>
	<circle class="st0" cx="117.5" cy="217.4" r="2.5"/>
	<circle class="st0" cx="130.1" cy="222.1" r="2.5"/>
	<circle class="st0" cx="143.3" cy="224.5" r="2.5"/>
	<circle class="st0" cx="156.7" cy="224.5" r="2.5"/>
	<circle class="st0" cx="169.9" cy="222.1" r="2.5"/>
	<circle class="st0" cx="182.5" cy="217.4" r="2.5"/>
	<circle class="st0" cx="194" cy="210.5" r="2.5"/>
	<circle class="st0" cx="204.1" cy="201.6" r="2.5"/>
	<circle class="st0" cx="212.5" cy="191.2" r="2.5"/>
	<circle class="st0" cx="218.9" cy="179.3" r="2.5"/>
	<circle class="st0" cx="223" cy="166.6" r="2.5"/>
	<circle class="st0" cx="224.8" cy="153.3" r="2.5"/>
	<circle class="st0" cx="224.2" cy="139.8" r="2.5"/>
	<circle class="st0" cx="221.2" cy="126.8" r="2.5"/>
	<circle class="st0" cx="215.9" cy="114.4" r="2.5"/>
	<circle class="st0" cx="208.6" cy="103.2" r="2.5"/>
	<circle class="st0" cx="199.3" cy="93.5" r="2.5"/>
	<circle class="st0" cx="188.4" cy="85.6" r="2.5"/>
	<circle class="st0" cx="176.3" cy="79.8" r="2.5"/>
	<circle class="st0" cx="163.4" cy="76.2" r="2.5"/>
</g>
<g>
	<circle class="st0" cx="150" cy="101" r="1.7"/>
	<circle class="st0" cx="141.3" cy="101.8" r="1.7"/>
	<circle class="st0" cx="132.8" cy="104.1" r="1.7"/>
	<circle class="st0" cx="124.9" cy="107.9" r="1.7"/>
	<circle class="st0" cx="117.9" cy="113.1" r="1.7"/>
	<circle class="st0" cx="111.8" cy="119.4" r="1.7"/>
	<circle class="st0" cx="107" cy="126.7" r="1.7"/>
	<circle class="st0" cx="103.5" cy="134.7" r="1.7"/>
	<circle class="st0" cx="101.6" cy="143.3" r="1.7"/>
	<circle class="st0" cx="101.2" cy="152" r="1.7"/>
	<circle class="st0" cx="102.4" cy="160.7" r="1.7"/>
	<circle class="st0" cx="105.1" cy="169" r="1.7"/>
	<circle class="st0" cx="109.2" cy="176.8" r="1.7"/>
	<circle class="st0" cx="114.7" cy="183.6" r="1.7"/>
	<circle class="st0" cx="121.3" cy="189.4" r="1.7"/>
	<circle class="st0" cx="128.8" cy="193.9" r="1.7"/>
	<circle class="st0" cx="137" cy="196.9" r="1.7"/>
	<circle class="st0" cx="145.6" cy="198.5" r="1.7"/>
	<circle class="st0" cx="154.4" cy="198.5" r="1.7"/>
	<circle class="st0" cx="163" cy="196.9" r="1.7"/>
	<circle class="st0" cx="171.2" cy="193.9" r="1.7"/>
	<circle class="st0" cx="178.7" cy="189.4" r="1.7"/>
	<circle class="st0" cx="185.3" cy="183.6" r="1.7"/>
	<circle class="st0" cx="190.8" cy="176.8" r="1.7"/>
	<circle class="st0" cx="194.9" cy="169" r="1.7"/>
	<circle class="st0" cx="197.6" cy="160.7" r="1.7"/>
	<circle class="st0" cx="198.8" cy="152" r="1.7"/>
	<circle class="st0" cx="198.4" cy="143.3" r="1.7"/>
	<circle class="st0" cx="196.5" cy="134.7" r="1.7"/>
	<circle class="st0" cx="193" cy="126.7" r="1.7"/>
	<circle class="st0" cx="188.2" cy="119.4" r="1.7"/>
	<circle class="st0" cx="182.1" cy="113.1" r="1.7"/>
	<circle class="st0" cx="175.1" cy="107.9" r="1.7"/>
	<circle class="st0" cx="167.2" cy="104.1" r="1.7"/>
	<circle class="st0" cx="158.7" cy="101.8" r="1.7"/>
</g>
<g>
	<g>
		<circle class="st1" cx="150" cy="127" r="0.8"/>
	</g>
	<g>
		<circle class="st1" cx="145.9" cy="127.4" r="0.8"/>
	</g>
	<g>
		<circle class="st1" cx="142" cy="128.4" r="0.8"/>
	</g>
	<g>
		<circle class="st1" cx="138.3" cy="130.2" r="0.8"/>
	</g>
	<g>
		<circle class="st1" cx="135" cy="132.6" r="0.8"/>
	</g>
	<g>
		<circle class="st1" cx="132.2" cy="135.6" r="0.8"/>
	</g>
	<g>
		<circle class="st1" cx="129.9" cy="139" r="0.8"/>
	</g>
	<g>
		<circle class="st1" cx="128.3" cy="142.7" r="0.8"/>
	</g>
	<g>
		<circle class="st1" cx="127.4" cy="146.7" r="0.8"/>
	</g>
	<g>
		<circle class="st1" cx="127.2" cy="150.8" r="0.8"/>
	</g>
	<g>
		<circle class="st1" cx="127.8" cy="154.9" r="0.8"/>
	</g>
	<g>
		<circle class="st1" cx="129" cy="158.8" r="0.8"/>
	</g>
	<g>
		<circle class="st1" cx="131" cy="162.4" r="0.8"/>
	</g>
	<g>
		<circle class="st1" cx="133.5" cy="165.5" r="0.8"/>
	</g>
	<g>
		<circle class="st1" cx="136.6" cy="168.2" r="0.8"/>
	</g>
	<g>
		<circle class="st1" cx="140.1" cy="170.3" r="0.8"/>
	</g>
	<g>
		<circle class="st1" cx="143.9" cy="171.8" r="0.8"/>
	</g>
	<g>
		<circle class="st1" cx="148" cy="172.5" r="0.8"/>
	</g>
	<g>
		<circle class="st1" cx="152" cy="172.5" r="0.8"/>
	</g>
	<g>
		<circle class="st1" cx="156.1" cy="171.8" r="0.8"/>
	</g>
	<g>
		<circle class="st1" cx="159.9" cy="170.3" r="0.8"/>
	</g>
	<g>
		<circle class="st1" cx="163.4" cy="168.2" r="0.8"/>
	</g>
	<g>
		<circle class="st1" cx="166.5" cy="165.5" r="0.8"/>
	</g>
	<g>
		<circle class="st1" cx="169" cy="162.4" r="0.8"/>
	</g>
	<g>
		<circle class="st1" cx="171" cy="158.8" r="0.8"/>
	</g>
	<g>
		<circle class="st1" cx="172.2" cy="154.9" r="0.8"/>
	</g>
	<g>
		<circle class="st1" cx="172.8" cy="150.8" r="0.8"/>
	</g>
	<g>
		<circle class="st1" cx="172.6" cy="146.7" r="0.8"/>
	</g>
	<g>
		<circle class="st1" cx="171.7" cy="142.7" r="0.8"/>
	</g>
	<g>
		<circle class="st1" cx="170.1" cy="139" r="0.8"/>
	</g>
	<g>
		<circle class="st1" cx="167.8" cy="135.6" r="0.8"/>
	</g>
	<g>
		<circle class="st1" cx="165" cy="132.6" r="0.8"/>
	</g>
	<g>
		<circle class="st1" cx="161.7" cy="130.2" r="0.8"/>
	</g>
	<g>
		<circle class="st1" cx="158" cy="128.4" r="0.8"/>
	</g>
	<g>
		<circle class="st1" cx="154.1" cy="127.4" r="0.8"/>
	</g>
</g>
</svg>
