<?xml version="1.0" encoding="utf-8"?>
<!-- Generator: Adobe Illustrator 25.2.3, SVG Export Plug-In . SVG Version: 6.00 Build 0)  -->
<svg version="1.1" id="Layer_1" xmlns="http://www.w3.org/2000/svg" xmlns:xlink="http://www.w3.org/1999/xlink" x="0px" y="0px"
	 viewBox="0 0 300 159" style="enable-background:new 0 0 300 159;" xml:space="preserve">
<style type="text/css">
	.st0{fill:#4C4C4C;}
</style>
<path class="st0" d="M52.4,119.4h-6.5v5h11.5v2.6H43v-17h13.8v2.6H45.9v4.2h6.5V119.4z"/>
<path class="st0" d="M77.2,110l-6.7,8.1l7,8.9h-3.7l-5.2-6.8l-5.4,6.8h-3.5l7.2-8.7l-6.5-8.2h3.7l4.7,6.2l4.9-6.2H77.2z"/>
<path class="st0" d="M79.5,110h16.2v2.6h-6.6V127h-2.9v-14.4h-6.7V110z"/>
<path class="st0" d="M99.9,127v-17h2.9v17H99.9z"/>
<path class="st0" d="M124.5,110v17H122l-9.8-11.8l0,0V127h-2.9v-17h2.6l9.8,11.8l0,0V110H124.5z"/>
<path class="st0" d="M142.9,114c-1.7-1.4-3.9-2.1-6.2-2c-2,0-3.8,0.7-3.8,2.4s2.5,1.9,5.1,2.1c3,0.2,7.8,0.5,7.8,5.2
	c0,4.1-3.4,5.7-7.5,5.7c-3.4,0.1-6.8-1.2-9.3-3.6l1.8-2c2,2,4.7,3.1,7.6,3.1c2.5,0,4.5-0.9,4.5-2.8c0-2.1-1.9-2.6-4.9-2.8
	c-3.7-0.3-8-0.6-8-4.7s3.7-5.2,6.8-5.2c2.8,0,5.5,0.8,7.8,2.5L142.9,114z"/>
<path class="st0" d="M156.1,110h2.6l7.9,17h-3.2l-2.1-4.6h-8.1l-2,4.6h-3L156.1,110z M154.3,120h6l-2.9-6.6h-0.2L154.3,120z"/>
<path class="st0" d="M176.5,127v-17h10.3c1.5-0.1,3,0.5,4.1,1.5c1.5,1.5,1.5,3.9,0.1,5.4c-0.3,0.3-0.7,0.6-1.1,0.8
	c1.9,0.5,3.2,2.3,3.1,4.3c0,1.4-0.5,2.7-1.6,3.6c-0.8,0.8-2,1.4-4.4,1.4L176.5,127z M179.4,112.6v4.4h7c0.7,0,1.3-0.2,1.8-0.6
	c0.4-0.5,0.7-1.1,0.7-1.7c0-0.5-0.2-1.1-0.6-1.4c-0.5-0.5-1.2-0.7-1.9-0.7L179.4,112.6z M179.4,119.4v5h7.7c0.8,0,1.5-0.3,2.1-0.8
	c0.5-0.5,0.7-1.1,0.7-1.7c0-0.6-0.3-1.2-0.7-1.6c-0.6-0.6-1.3-0.9-2.1-0.9L179.4,119.4z"/>
<path class="st0" d="M203.8,110h2.6l7.9,17h-3.2l-2-4.6H201l-2,4.6h-3L203.8,110z M202.1,120h6l-2.9-6.6H205L202.1,120z"/>
<path class="st0" d="M233.7,110v17h-2.6l-9.8-11.8l0,0V127h-2.9v-17h2.6l9.8,11.8l0,0V110H233.7z"/>
<path class="st0" d="M243,118.4l8.9-8.4h3.6l-6.9,6.5L257,127h-3.8l-6.8-8.5l-3.4,3.2v5.3h-2.9v-17h2.9V118.4z"/>
<path class="st0" d="M42,136.4c2.1,0.1,3.7,1.9,3.5,4c-0.1,2.1-1.9,3.7-4,3.5c-2-0.1-3.6-1.8-3.5-3.8C38.1,138,39.8,136.3,42,136.4
	C42,136.4,42,136.4,42,136.4z M42,143c1.6,0,2.9-1.3,2.9-2.9c0-1.6-1.3-2.9-2.9-2.9c0,0,0,0,0,0c-1.6,0-2.9,1.3-2.9,2.9
	C39.1,141.7,40.4,143,42,143C42,143,42,143,42,143z"/>
<path class="st0" d="M52.8,138.6v3.8c0,0.4,0,0.9,0.1,1.3h-0.8c-0.1-0.3-0.1-0.5-0.1-0.8c-0.4,0.6-1.1,0.9-1.9,0.9
	c-1,0.1-1.9-0.7-2-1.7c0,0,0-0.1,0-0.1v-3.5H49v3.4c0.1,0.6,0.6,1.1,1.2,1c0.7,0,1.3-0.3,1.7-0.9v-3.7L52.8,138.6z"/>
<path class="st0" d="M55.5,143.7v-3.8c0-0.4,0-0.9-0.2-1.3h0.8c0.1,0.3,0.1,0.6,0.1,0.9c0.3-0.6,0.9-1,1.6-1.1
	c0.3,0,0.6,0.1,0.8,0.3l-0.3,0.8c-0.2-0.1-0.4-0.2-0.7-0.2c-0.6,0-1,0.5-1.3,0.9v3.5H55.5z"/>
<path class="st0" d="M67.6,139.8c-0.4-0.4-1-0.7-1.6-0.7c-1,0-1.8,0.8-1.8,1.8c0,0.1,0,0.1,0,0.2c-0.1,1,0.7,1.9,1.7,2
	c0.1,0,0.1,0,0.2,0c0.6,0,1.3-0.3,1.7-0.8l0.6,0.6c-0.6,0.6-1.5,1-2.3,1c-1.5,0-2.7-1.2-2.7-2.7c0-1.5,1.2-2.7,2.7-2.7
	c0.8,0,1.6,0.3,2.2,0.9L67.6,139.8z"/>
<path class="st0" d="M70.5,143.7V136h0.9v7.7L70.5,143.7z"/>
<path class="st0" d="M74.6,136.1c0.3-0.1,0.6,0,0.7,0.3c0.1,0.3,0,0.6-0.3,0.7c-0.1,0-0.2,0-0.4,0c-0.3,0.1-0.6,0-0.7-0.3
	c-0.1-0.3,0-0.6,0.3-0.7C74.4,136.1,74.5,136.1,74.6,136.1z M74.2,143.7v-5.1H75v5.1H74.2z"/>
<path class="st0" d="M82.5,142.9c-0.7,0.6-1.6,1-2.5,1c-1.4,0.1-2.6-1-2.6-2.4c0-0.1,0-0.2,0-0.2c0-1.5,1.1-2.7,2.6-2.8
	c0,0,0.1,0,0.1,0c1.4-0.1,2.5,1,2.6,2.4c0,0.1,0,0.1,0,0.2c0,0.1,0,0.2,0,0.3h-4.4c0,1,0.7,1.8,1.7,1.8c0,0,0.1,0,0.1,0
	c0.7,0,1.4-0.3,1.8-0.8L82.5,142.9z M78.3,140.6h3.4c-0.1-0.8-0.8-1.5-1.6-1.4c0,0,0,0-0.1,0C79.2,139.1,78.4,139.7,78.3,140.6z"/>
<path class="st0" d="M84.9,143.7v-3.8c0-0.4,0-0.9-0.1-1.3h0.8c0.1,0.3,0.1,0.5,0.1,0.8c0.4-0.6,1.1-1,1.9-1c1-0.1,1.9,0.7,2,1.7
	c0,0,0,0.1,0,0.1v3.5h-0.9v-3.5c0-0.6-0.6-1.1-1.2-1.1c0,0,0,0,0,0c-0.7,0-1.3,0.4-1.7,0.9v3.7L84.9,143.7z"/>
<path class="st0" d="M91.5,138.6h1V137h0.9v1.6H95v0.7h-1.6v3.2c0,0.4,0.2,0.7,0.6,0.7c0,0,0.1,0,0.1,0c0.3,0,0.6,0,0.9-0.1l0.1,0.7
	c-0.3,0.2-0.7,0.3-1.1,0.2c-0.7,0-1.4-0.5-1.4-1.3c0-0.1,0-0.1,0-0.2v-3.2h-1L91.5,138.6z"/>
<path class="st0" d="M97.1,139.3l-0.2-1.6v-1.1h0.9v1.1l-0.2,1.6H97.1z"/>
<path class="st0" d="M103.9,139.7c-0.6-0.4-1.3-0.5-1.9-0.6c-0.6,0-1.2,0.2-1.2,0.8s0.9,0.7,1.4,0.7c0.9,0.1,2.4,0.1,2.4,1.6
	c0,1.2-1.1,1.7-2.4,1.7c-0.9,0-1.8-0.3-2.5-0.8l0.3-0.6c0.6,0.5,1.4,0.7,2.2,0.7c0.9,0,1.6-0.3,1.6-0.9s-0.9-0.8-1.6-0.8
	c-1.1-0.1-2.3-0.2-2.3-1.4s1.1-1.6,2.1-1.6c0.8,0,1.6,0.2,2.3,0.6L103.9,139.7z"/>
<path class="st0" d="M113.7,139.7c-0.6-0.4-1.3-0.5-1.9-0.6c-0.6,0-1.2,0.2-1.2,0.8s0.9,0.7,1.4,0.7c0.9,0.1,2.4,0.1,2.4,1.6
	c0,1.2-1.1,1.7-2.4,1.7c-0.9,0-1.8-0.3-2.5-0.8l0.3-0.6c0.6,0.5,1.4,0.7,2.2,0.7c0.9,0,1.6-0.3,1.6-0.9s-0.9-0.8-1.6-0.8
	c-1.1-0.1-2.3-0.2-2.3-1.4s1.1-1.6,2.1-1.6c0.8,0,1.6,0.2,2.3,0.6L113.7,139.7z"/>
<path class="st0" d="M116.6,139.1c0.7-0.4,1.5-0.7,2.4-0.7c1.1,0,2.3,0.4,2.3,1.5v2.9c0,0.3,0,0.6,0.2,0.9h-0.9
	c-0.1-0.2-0.1-0.5-0.2-0.7c-0.6,0.5-1.3,0.8-2.1,0.8c-1,0.1-1.9-0.6-2-1.6c0,0,0-0.1,0-0.1c0-0.9,0.8-1.7,2.4-1.7
	c0.6,0,1.3,0.2,1.8,0.5v-0.7c0-0.7-0.7-1-1.5-1c-0.7,0-1.4,0.2-2,0.6L116.6,139.1z M120.4,142.2v-0.6c-0.5-0.4-1.1-0.6-1.7-0.5
	c-1.2,0-1.6,0.4-1.6,1s0.5,1,1.3,1C119.1,143,119.8,142.8,120.4,142.2L120.4,142.2z"/>
<path class="st0" d="M123.2,138.6h1V137h0.9v1.6h1.5v0.7h-1.5v3.2c0,0.4,0.2,0.7,0.6,0.7c0,0,0.1,0,0.1,0c0.3,0,0.6-0.1,0.9-0.2
	l0.1,0.7c-0.4,0.2-0.7,0.3-1.1,0.2c-0.7,0-1.4-0.5-1.4-1.3c0-0.1,0-0.1,0-0.2v-3.2h-1V138.6z"/>
<path class="st0" d="M129.2,136.1c0.3-0.1,0.6,0,0.7,0.3c0.1,0.3,0,0.6-0.3,0.7c-0.1,0-0.2,0-0.4,0c-0.3,0.1-0.6,0-0.7-0.3
	c-0.1-0.3,0-0.6,0.3-0.7C129,136.1,129.1,136.1,129.2,136.1z M128.8,143.7v-5.1h0.9v5.1H128.8z"/>
<path class="st0" d="M136.1,139.7c-0.6-0.4-1.3-0.5-1.9-0.6c-0.6,0-1.2,0.2-1.2,0.8s0.9,0.7,1.5,0.7c0.9,0.1,2.4,0.1,2.4,1.6
	c0,1.2-1.1,1.7-2.4,1.7c-0.9,0-1.8-0.3-2.5-0.8l0.3-0.6c0.6,0.5,1.4,0.7,2.2,0.7c0.9,0,1.5-0.3,1.5-0.9s-0.9-0.8-1.5-0.8
	c-1.1-0.1-2.3-0.2-2.3-1.4s1.1-1.6,2.1-1.6c0.8,0,1.6,0.2,2.3,0.6L136.1,139.7z"/>
<path class="st0" d="M139.5,138.6v-1.1c-0.1-0.8,0.5-1.5,1.3-1.6c0.1,0,0.2,0,0.2,0c0.4,0,0.8,0.1,1.2,0.3L142,137
	c-0.2-0.2-0.5-0.3-0.8-0.3c-0.4,0-0.8,0.3-0.8,0.7c0,0,0,0.1,0,0.1v1.1h1.5v0.7h-1.5v4.5h-0.9v-4.5h-1v-0.7L139.5,138.6z"/>
<path class="st0" d="M143.6,139.1c0.7-0.4,1.5-0.7,2.4-0.7c1.1,0,2.3,0.4,2.3,1.5v2.9c0,0.3,0,0.6,0.2,0.9h-0.9
	c-0.1-0.2-0.1-0.5-0.1-0.7c-0.6,0.5-1.3,0.8-2.1,0.8c-1,0.1-1.9-0.6-2-1.6c0,0,0-0.1,0-0.1c0-0.9,0.9-1.7,2.4-1.7
	c0.6,0,1.3,0.2,1.8,0.5v-0.7c0-0.7-0.7-1-1.5-1c-0.7,0-1.4,0.2-2,0.6L143.6,139.1z M147.4,142.2v-0.6c-0.5-0.4-1.1-0.6-1.7-0.5
	c-1.2,0-1.6,0.4-1.6,1s0.5,1,1.3,1C146.1,143,146.8,142.7,147.4,142.2L147.4,142.2z"/>
<path class="st0" d="M154.9,139.8c-0.4-0.4-1-0.7-1.6-0.7c-1,0-1.8,0.8-1.8,1.8c0,0.1,0,0.1,0,0.2c-0.1,1,0.7,1.9,1.7,2
	c0.1,0,0.1,0,0.2,0c0.6,0,1.3-0.3,1.7-0.8l0.6,0.6c-0.6,0.6-1.5,1-2.4,1c-1.5,0-2.7-1.2-2.7-2.7c0-1.5,1.2-2.7,2.7-2.7
	c0.8,0,1.6,0.3,2.2,0.9L154.9,139.8z"/>
<path class="st0" d="M157,138.6h1V137h0.9v1.6h1.6v0.7h-1.6v3.2c0,0.4,0.2,0.7,0.6,0.7c0,0,0.1,0,0.1,0c0.3,0,0.6-0.1,0.9-0.2
	l0.1,0.7c-0.4,0.2-0.7,0.3-1.1,0.2c-0.7,0-1.4-0.5-1.4-1.3c0-0.1,0-0.1,0-0.2v-3.2h-1L157,138.6z"/>
<path class="st0" d="M163.1,136.1c0.3-0.1,0.6,0,0.7,0.3c0.1,0.3,0,0.6-0.3,0.7c-0.1,0-0.2,0-0.4,0c-0.3,0.1-0.6,0-0.7-0.3
	c-0.1-0.3,0-0.6,0.3-0.7C162.8,136.1,163,136.1,163.1,136.1z M162.7,143.7v-5.1h0.9v5.1H162.7z"/>
<path class="st0" d="M168.6,138.4c1.5,0,2.7,1.3,2.7,2.8c0,1.5-1.3,2.7-2.8,2.7c-1.5,0-2.7-1.2-2.7-2.7c0-1.5,1.2-2.7,2.6-2.7
	C168.5,138.4,168.5,138.4,168.6,138.4z M168.6,143.1c1.1,0.1,2.1-0.7,2.1-1.8c0.1-1.1-0.7-2.1-1.8-2.1c-1.1-0.1-2.1,0.7-2.1,1.8
	c0,0,0,0.1,0,0.1C166.7,142.2,167.5,143.1,168.6,143.1C168.5,143.1,168.6,143.1,168.6,143.1z"/>
<path class="st0" d="M173.6,143.7v-3.8c0-0.4,0-0.9-0.1-1.3h0.8c0.1,0.3,0.1,0.5,0.1,0.8c0.4-0.6,1.1-1,1.9-1c1-0.1,1.9,0.7,2,1.7
	c0,0,0,0.1,0,0.1v3.5h-0.9v-3.5c0-0.6-0.6-1.1-1.2-1.1c0,0,0,0,0,0c-0.7,0-1.3,0.4-1.7,0.9v3.7L173.6,143.7z"/>
<path class="st0" d="M184.5,136.1c0.3-0.1,0.6,0,0.7,0.3c0.1,0.3,0,0.6-0.3,0.7c-0.1,0-0.2,0-0.4,0c-0.3,0.1-0.6,0-0.7-0.3
	c-0.1-0.3,0-0.6,0.3-0.7C184.3,136.1,184.4,136.1,184.5,136.1z M184.1,143.7v-5.1h0.9v5.1H184.1z"/>
<path class="st0" d="M191.4,139.7c-0.6-0.4-1.3-0.5-1.9-0.6c-0.6,0-1.2,0.2-1.2,0.8s0.9,0.7,1.5,0.7c0.9,0.1,2.4,0.1,2.4,1.6
	c0,1.2-1.1,1.7-2.4,1.7c-0.9,0-1.8-0.3-2.5-0.8l0.3-0.6c0.6,0.5,1.4,0.7,2.2,0.7c0.9,0,1.6-0.3,1.6-0.9s-0.9-0.8-1.6-0.8
	c-1.1-0.1-2.3-0.2-2.3-1.4s1.1-1.6,2.1-1.6c0.8,0,1.6,0.2,2.3,0.6L191.4,139.7z"/>
<path class="st0" d="M199.8,138.4c1.5,0,2.7,1.2,2.7,2.7c0,1.5-1.2,2.7-2.7,2.7c-1.5,0-2.7-1.2-2.7-2.7c0-1.5,1.2-2.7,2.6-2.7
	C199.7,138.4,199.8,138.4,199.8,138.4z M199.8,143.1c1.1,0.1,2.1-0.7,2.2-1.8s-0.7-2.1-1.8-2.2s-2.1,0.7-2.2,1.8c0,0.1,0,0.1,0,0.2
	C197.9,142.2,198.7,143.1,199.8,143.1C199.8,143.1,199.8,143.1,199.8,143.1z"/>
<path class="st0" d="M209.4,138.6v3.8c0,0.4,0,0.9,0.1,1.3h-0.8c-0.1-0.3-0.1-0.5-0.1-0.8c-0.4,0.6-1.1,0.9-1.9,0.9
	c-1,0.1-1.9-0.7-2-1.7c0,0,0-0.1,0-0.1v-3.5h0.9v3.4c0.1,0.6,0.6,1.1,1.2,1c0.7,0,1.3-0.3,1.7-0.9v-3.7L209.4,138.6z"/>
<path class="st0" d="M212.2,143.7v-3.8c0-0.4,0-0.9-0.1-1.3h0.8c0.1,0.3,0.1,0.6,0.1,0.9c0.3-0.6,0.9-1,1.6-1.1
	c0.3,0,0.6,0.1,0.8,0.3l-0.3,0.8c-0.2-0.1-0.4-0.2-0.7-0.2c-0.6,0-1,0.5-1.3,0.9v3.5H212.2z"/>
<path class="st0" d="M220.3,146v-6.1c0-0.4,0-0.9-0.1-1.3h0.8c0.1,0.2,0.1,0.5,0.1,0.8c0.5-0.6,1.1-0.9,1.9-0.9
	c1.5,0,2.7,1.2,2.7,2.8s-1.2,2.7-2.8,2.7l0,0c-0.7,0-1.3-0.3-1.7-0.8v3L220.3,146z M221.2,142.3c0.4,0.5,1,0.7,1.6,0.8
	c1.1-0.2,1.8-1.3,1.6-2.3c-0.1-0.8-0.8-1.4-1.5-1.6c-0.6,0-1.3,0.3-1.7,0.8L221.2,142.3z"/>
<path class="st0" d="M227.8,143.7v-3.8c0-0.4,0-0.9-0.1-1.3h0.8c0.1,0.3,0.1,0.6,0.1,0.9c0.3-0.6,0.9-1,1.6-1.1
	c0.3,0,0.6,0.1,0.8,0.3l-0.3,0.8c-0.2-0.1-0.4-0.2-0.7-0.2c-0.6,0-1,0.5-1.3,0.9v3.5H227.8z"/>
<path class="st0" d="M233.2,136.1c0.3-0.1,0.6,0,0.7,0.3c0.1,0.3,0,0.6-0.3,0.7c-0.1,0-0.2,0-0.4,0c-0.3,0.1-0.6,0-0.7-0.3
	c-0.1-0.3,0-0.6,0.3-0.7C233,136.1,233.1,136.1,233.2,136.1z M232.8,143.7v-5.1h0.9v5.1H232.8z"/>
<path class="st0" d="M238.7,138.4c1.5,0,2.7,1.2,2.7,2.7c0,1.5-1.2,2.7-2.7,2.7c-1.5,0-2.7-1.2-2.7-2.7
	C235.9,139.6,237.1,138.4,238.7,138.4C238.6,138.4,238.7,138.4,238.7,138.4z M238.7,143.1c1.1,0.1,2.1-0.7,2.2-1.8s-0.7-2.1-1.8-2.2
	s-2.1,0.7-2.2,1.8c0,0.1,0,0.1,0,0.2C236.8,142.2,237.6,143.1,238.7,143.1C238.7,143.1,238.7,143.1,238.7,143.1z"/>
<path class="st0" d="M243.8,143.7v-3.8c0-0.4-0.1-0.9-0.2-1.3h0.8c0.1,0.3,0.1,0.6,0.1,0.9c0.3-0.6,0.9-1,1.6-1.1
	c0.3,0,0.6,0.1,0.8,0.3l-0.3,0.8c-0.2-0.1-0.4-0.2-0.7-0.2c-0.6,0-1,0.5-1.3,0.9v3.5H243.8z"/>
<path class="st0" d="M249.2,136.1c0.3-0.1,0.6,0,0.7,0.3c0.1,0.3,0,0.6-0.3,0.7c-0.1,0-0.2,0-0.4,0c-0.3,0.1-0.6,0-0.7-0.3
	c-0.1-0.3,0-0.6,0.3-0.7C249,136.1,249.1,136.1,249.2,136.1z M248.8,143.7v-5.1h0.9v5.1H248.8z"/>
<path class="st0" d="M251.6,138.6h1V137h0.9v1.6h1.6v0.7h-1.6v3.2c0,0.4,0.2,0.7,0.6,0.7c0,0,0.1,0,0.1,0c0.3,0,0.6-0.1,0.9-0.2
	l0.1,0.7c-0.4,0.2-0.7,0.3-1.1,0.2c-0.7,0-1.4-0.5-1.4-1.3c0-0.1,0-0.1,0-0.2v-3.2h-1L251.6,138.6z"/>
<path class="st0" d="M262,138.6l-3.6,7.4h-0.9l1.3-2.5l-2.2-4.9h1l1.7,3.9l0,0l1.8-3.9L262,138.6z"/>
<path class="st0" d="M87.8,72.4c-0.5,1.4,41.2,12.9,60.8-14.4c6.9-9.6,4.1-20.7-3.4-24.7c-7-3.7-23.6-2-31.7,15.4
	c-23.7,50.8,44.3,72.8,70.1,30.1c18-29.8-2-60.3-14.8-65.8l-9.3,24.6c-0.2,0.7,4.8,2.2,11.1,10.8c15.4,20.9-3.3,43.3-23.7,43.1
	c-16-0.2-26.5-10.7-24.9-28.1c2.3-25.8,37.2-23,18-4.9c-12.9,12.1-34.6,8.8-45.7-3.8L87.8,72.4z"/>
<path class="st0" d="M188.5,101.5c-7.6,0-2.9,1.9-12.1-9.7c-8.4-10.8-20.1-21.5-33.5-24.1c5.6-4.4,10.5-10.3,11.9-17.4
	C171.6,61.3,185.2,79.7,188.5,101.5z"/>
</svg>
