<?xml version="1.0" encoding="utf-8"?>
<!-- Generator: Adobe Illustrator 25.2.3, SVG Export Plug-In . SVG Version: 6.00 Build 0)  -->
<svg version="1.1" id="Layer_1" xmlns="http://www.w3.org/2000/svg" xmlns:xlink="http://www.w3.org/1999/xlink" x="0px" y="0px"
	 viewBox="0 0 1080 1080" style="enable-background:new 0 0 1080 1080;" xml:space="preserve">
<style type="text/css">
	.st0{fill:#EAB308;}
	.st1{fill:#FFFFFF;}
</style>
<g>
	<g>
		<polygon class="st0" points="266.4,628.2 266.4,461.6 548.5,743.7 885.4,406.8 885.4,167.2 991.5,61.1 991.5,671.7 887,579.1 
			547.6,909.4 		"/>
		<polygon class="st0" points="551.2,501.4 826.7,225.9 826.7,377.2 546.6,657.3 88.5,199.3 88.5,45.5 		"/>
		<polygon class="st0" points="93,288.2 203.6,398.8 203.6,565.4 93,676 		"/>
	</g>
	<g>
		<path class="st1" d="M107.9,1034.5H88.5v-93.4h20.3l22.7,53.7l23-53.7h20.3v93.4h-19.4v-37.2l2.4-18.1h-1.5l-4.5,13.1l-12.8,29.9
			h-14.5l-12.9-30.1l-4.5-12.8h-1.3l2.1,18.1C107.9,997.4,107.9,1034.5,107.9,1034.5z"/>
		<path class="st1" d="M214.6,978.3h40.2v18.9h-40.2v18.5h43.8v18.9h-63.3v-93.5h63.3v19h-43.8L214.6,978.3L214.6,978.3z"/>
		<path class="st1" d="M310.2,941.1c18.5,0,35.6,9.2,35.6,30.3v33.2c0,21-17.1,29.8-35.6,29.8H276V941L310.2,941.1L310.2,941.1z
			 M310.2,1014.9c8.4,0,16.1-2.8,16.1-10.3v-33.2c0-7.8-7.7-10.8-16.1-10.8h-14.9v54.3H310.2z"/>
		<path class="st1" d="M389.1,941.1h19.4v73.9h40.4v19.5h-59.8V941.1z"/>
		<path class="st1" d="M539.2,1034.5h-20.3l-8.2-21.4h-27.8l-7.8,21.4h-20.7l32.7-93.4h18.6L539.2,1034.5z M487.8,995.3h17.9
			l-5.9-20.3l-2.9-13.3H496l-2.9,13.5L487.8,995.3z"/>
		<path class="st1" d="M626.8,1034.5h-20.3l-8.2-21.4h-27.8l-7.8,21.4H542l32.7-93.4h18.6L626.8,1034.5z M575.4,995.3h17.9
			l-5.9-20.3l-2.9-13.3h-0.9l-2.9,13.5L575.4,995.3z"/>
		<path class="st1" d="M657.6,1034.5h-19.4v-93.4h20.3l22.7,53.7l23-53.7h20.3v93.4H705v-37.2l2.4-18.1H706l-4.5,13.1l-12.8,29.9
			h-14.5l-12.9-30.1l-4.5-12.8h-1.3l2.1,18.1V1034.5z"/>
		<path class="st1" d="M768.2,1034.5v-35.7l-32.4-57.6h22.3l19.8,39l19.8-39h22.6l-32.6,57.6v35.7H768.2z"/>
		<path class="st1" d="M851.1,1000.3v34.2h-19.5v-93.4h36.8c18.7,0,32.7,8.6,33.4,29.8c0,17.3-7.7,25.5-21.2,28.1l27.8,35.5h-23.9
			l-26.5-34.2H851.1z M868.3,982.6c8.6,0,14-3.3,14-11.6c0-4-1.3-6.7-3.8-8.3c-2.4-1.5-5.4-2.1-9-2.1h-1.2H851v22L868.3,982.6
			L868.3,982.6z"/>
		<path class="st1" d="M938.4,1034.5v-35.7L906,941.2h22.3l19.8,39l19.8-39h22.6l-32.6,57.6v35.7H938.4z"/>
	</g>
</g>
</svg>
