<?xml version="1.0" encoding="utf-8"?>
<!-- Generator: Adobe Illustrator 25.2.3, SVG Export Plug-In . SVG Version: 6.00 Build 0)  -->
<svg version="1.1" id="Layer_1" xmlns="http://www.w3.org/2000/svg" xmlns:xlink="http://www.w3.org/1999/xlink" x="0px" y="0px"
	 viewBox="0 0 2112.1 503.6" style="enable-background:new 0 0 2112.1 503.6;" xml:space="preserve">
<style type="text/css">
	.st0{fill:#EAB308;}
	.st1{fill:#FFFFFF;}
</style>
<g>
	<g>
		<polygon class="st0" points="174.8,325.6 174.8,244 313,382.2 478,217.2 478,99.8 529.9,47.9 529.9,346.9 478.8,301.6 
			312.6,463.3 		"/>
		<polygon class="st0" points="314.3,263.5 449.2,128.6 449.2,202.7 312.1,339.9 87.7,115.6 87.7,40.3 		"/>
		<polygon class="st0" points="89.9,159.1 144.1,213.3 144.1,294.8 89.9,349 		"/>
	</g>
	<g>
		<path class="st1" d="M636.5,289.3H606V142.5h32l35.7,84.4l36.1-84.4h31.9v146.9h-30.5v-58.5l3.7-28.4h-2.3l-7.1,20.5l-20,47h-22.8
			l-20.3-47.3l-7.1-20.1h-2.1l3.3,28.4L636.5,289.3L636.5,289.3z"/>
		<path class="st1" d="M804.4,201h63.3v29.7h-63.3v29h68.9v29.7h-99.6V142.3h99.6v29.9h-68.9V201z"/>
		<path class="st1" d="M954.8,142.5c29,0,56,14.5,56,47.7v52.3c0,33-27,46.9-56,46.9h-53.9V142.5H954.8z M954.8,258.6
			c13.3,0,25.3-4.4,25.3-16.2v-52.3c0-12.2-12-17-25.3-17h-23.4v85.5H954.8z"/>
		<path class="st1" d="M1078.8,142.5h30.5v116.2h63.5v30.7h-94V142.5z"/>
		<path class="st1" d="M1314.9,289.3H1283l-12.9-33.6h-43.8l-12.2,33.6h-32.6l51.4-146.9h29.2L1314.9,289.3z M1234,227.7h28.2
			l-9.3-31.9l-4.6-21h-1.5l-4.6,21.2L1234,227.7z"/>
		<path class="st1" d="M1452.6,289.3h-31.9l-12.9-33.6H1364l-12.2,33.6h-32.6l51.4-146.9h29.2L1452.6,289.3z M1371.7,227.7h28.2
			l-9.3-31.9l-4.6-21h-1.5L1380,196L1371.7,227.7z"/>
		<path class="st1" d="M1501,289.3h-30.5V142.5h31.9l35.7,84.4l36.1-84.4h31.9v146.9h-30.5v-58.5l3.7-28.4h-2.3l-7,20.5l-20.1,47.1
			h-22.8l-20.3-47.3l-7.1-20.1h-2.1l3.3,28.4L1501,289.3L1501,289.3z"/>
		<path class="st1" d="M1675,289.3v-56.2l-51-90.7h35.1l31.1,61.4l31.1-61.4h35.5l-51.2,90.7v56.2H1675z"/>
		<path class="st1" d="M1805.3,235.6v53.7h-30.7V142.5h57.9c29.5,0,51.4,13.5,52.5,46.9c0,27.2-12,40-33.4,44.2l43.8,55.8h-37.5
			l-41.7-53.7L1805.3,235.6L1805.3,235.6z M1832.5,207.8c13.5,0,22-5.2,22-18.3c0-6.2-2.1-10.6-6-13.1c-3.7-2.3-8.5-3.3-14.1-3.3
			h-1.9h-27.2v34.6h27.2V207.8z"/>
		<path class="st1" d="M1942.6,289.3v-56.2l-51-90.7h35.1l31.1,61.4l31.1-61.4h35.5l-51.2,90.7v56.2H1942.6z"/>
	</g>
</g>
</svg>
