<?xml version="1.0" encoding="utf-8"?>
<!-- Generator: Adobe Illustrator 25.2.3, SVG Export Plug-In . SVG Version: 6.00 Build 0)  -->
<svg version="1.1" id="Layer_1" xmlns="http://www.w3.org/2000/svg" xmlns:xlink="http://www.w3.org/1999/xlink" x="0px" y="0px"
	 viewBox="0 0 300 159" style="enable-background:new 0 0 300 159;" xml:space="preserve">
<style type="text/css">
	.st0{opacity:0.49;}
	.st1{fill:#505050;}
	.st2{font-family:'ArialMT';}
	.st3{font-size:117.64px;}
	.st4{opacity:0.5;}
	.st5{fill:url(#SVGID_1_);}
	.st6{fill:#858585;}
	.st7{enable-background:new    ;}
</style>
<g class="st0">
	<text transform="matrix(0.89 0 0 1 99.4902 111.29)" class="st1 st2 st3">D</text>
</g>
<g class="st4">
	<text transform="matrix(0.89 0 0 1 167.79 111.21)" class="st1 st2 st3">R</text>
</g>
<linearGradient id="SVGID_1_" gradientUnits="userSpaceOnUse" x1="58.84" y1="90.76" x2="117.63" y2="90.76" gradientTransform="matrix(1 0 0 -1 0 160)">
	<stop  offset="0" style="stop-color:#FFFFFF"/>
	<stop  offset="0.16" style="stop-color:#BEBEBE"/>
	<stop  offset="0.32" style="stop-color:#838383"/>
	<stop  offset="0.44" style="stop-color:#5E5E5E"/>
	<stop  offset="0.5" style="stop-color:#505050"/>
</linearGradient>
<polygon class="st5" points="85.9,27.3 101,27.3 117.6,80.8 107.6,111.2 93.3,56.4 78.6,111.2 58.8,111.2 "/>
<polygon class="st1" points="117.6,80.8 134.9,27.3 150.1,27.3 176.1,111.2 156.9,111.2 151.3,92.7 140.7,92.6 140.7,81.9 
	148.2,81.7 142.3,56.5 127.7,111.2 107.6,111.2 "/>
<polygon class="st6" points="191.2,111.2 176.1,111.2 159.5,57.7 169.5,27.3 183.8,82.1 198.5,27.3 208.1,57.3 "/>
<g class="st7">
	<path class="st1" d="M60,137.1v-23.4h5.8l6.9,16.6c0.6,1.5,1.1,2.7,1.4,3.5c0.3-0.8,0.9-2.1,1.6-3.7l7-16.3h5.2v23.4h-3.7v-19.6
		l-8.5,19.6h-3.5l-8.5-19.9v19.9H60z"/>
	<path class="st1" d="M90.9,137.1l11.2-23.4h4.2l12,23.4h-4.4l-3.4-7.1H98.3l-3.2,7.1H90.9z M99.4,127.5h9.9l-3.1-6.5
		c-0.9-2-1.6-3.6-2.1-4.8c-0.4,1.5-0.9,3-1.6,4.5L99.4,127.5z"/>
	<path class="st1" d="M121.4,137.1v-23.4h13c2.6,0,4.6,0.2,5.9,0.6s2.4,1.2,3.2,2.2c0.8,1.1,1.2,2.2,1.2,3.5c0,1.7-0.7,3.1-2,4.2
		s-3.4,1.9-6.2,2.2c1,0.4,1.8,0.8,2.3,1.2c1.1,0.8,2.2,1.9,3.2,3.1l5.1,6.4h-4.9l-3.9-4.9c-1.1-1.4-2.1-2.5-2.8-3.2
		c-0.7-0.7-1.4-1.3-2-1.6c-0.6-0.3-1.2-0.5-1.8-0.6c-0.4-0.1-1.2-0.1-2.2-0.1h-4.5v10.4H121.4z M125.3,124.1h8.3
		c1.8,0,3.1-0.1,4.1-0.4c1-0.3,1.8-0.8,2.3-1.4c0.5-0.6,0.8-1.3,0.8-2.1c0-1.1-0.5-2-1.5-2.7s-2.6-1.1-4.8-1.1h-9.2V124.1z"/>
	<path class="st1" d="M159.2,137.1l-11.3-23.4h4.2l7.6,17c0.6,1.4,1.1,2.6,1.5,3.8c0.5-1.3,1-2.6,1.6-3.8l7.9-17h3.9l-11.4,23.4
		H159.2z"/>
	<path class="st1" d="M178.8,137.1v-23.4h3.9v23.4H178.8z"/>
	<path class="st1" d="M189.4,137.1v-23.4h10.1c2.3,0,4,0.1,5.2,0.3c1.7,0.3,3.1,0.9,4.3,1.7c1.5,1,2.7,2.4,3.5,4
		c0.8,1.6,1.1,3.5,1.1,5.6c0,1.8-0.3,3.3-0.8,4.7c-0.5,1.4-1.2,2.5-2,3.4s-1.7,1.6-2.7,2.1c-1,0.5-2.1,0.9-3.5,1.2
		c-1.4,0.3-2.9,0.4-4.7,0.4H189.4z M193.3,134.4h6.2c1.9,0,3.4-0.1,4.5-0.4s2-0.7,2.6-1.2c0.9-0.7,1.6-1.7,2.1-3
		c0.5-1.2,0.8-2.7,0.8-4.5c0-2.4-0.5-4.3-1.5-5.6c-1-1.3-2.2-2.2-3.7-2.6c-1-0.3-2.7-0.5-5-0.5h-6.1V134.4z"/>
	<path class="st1" d="M215.7,137.1l11.2-23.4h4.2l12,23.4h-4.4l-3.4-7.1H223l-3.2,7.1H215.7z M224.1,127.5h9.9l-3-6.5
		c-0.9-2-1.6-3.6-2.1-4.8c-0.4,1.5-0.9,3-1.6,4.5L224.1,127.5z"/>
</g>
<circle class="st1" cx="198.6" cy="23.3" r="2.7"/>
</svg>
