<?xml version="1.0" encoding="utf-8"?>
<!-- Generator: Adobe Illustrator 25.2.3, SVG Export Plug-In . SVG Version: 6.00 Build 0)  -->
<svg version="1.1" id="Layer_1" xmlns="http://www.w3.org/2000/svg" xmlns:xlink="http://www.w3.org/1999/xlink" x="0px" y="0px"
	 viewBox="0 0 300 159" style="enable-background:new 0 0 300 159;" xml:space="preserve">
<style type="text/css">
	.st0{fill:#878787;}
</style>
<path class="st0" d="M49.8,141.6c0,0-10.6-1.3-5.5-17.6s47.4-54.4,92.5-78.5s81.6-38.8,95-19.2c13.4,19.6-20.5,63.5-28.9,73.2
	s-23.9,21.7-31.5,15.4c-9.5-7.9-7.1-25.4-10.3-28.6c0,0-14.7,24.6-25.1,31.4c-10.4,6.9-21.8-2.4-27.6-16.6s-13.8-38.8-14.9-52
	c0,0,11.2,27.8,14,34.7c2.8,6.9,12.3,26.3,20.7,26.8c8.4,0.6,21.1-31.3,30.8-36.5c9.6-5.2,15.7,7.6,18.9,28.2
	c0.1,0.3,0.4,0.6,0.7,0.4c6.6-2.4,17.7-17.1,24.2-26.8c6.7-10.1,22.2-35.2,15.5-42.5s-51.8,8.1-79.3,24S28.1,118.9,49.8,141.6z"/>
</svg>
